<svg width="16" height="16" viewBox="0 0 16 16" fill="none" xmlns="http://www.w3.org/2000/svg">
<g clip-path="url(#clip0_232_4760)">
<path d="M9.7975 10.2539L9.2575 10.7933C8.99683 11.0539 8.99683 11.4753 9.2575 11.7359C9.3875 11.8659 9.55817 11.9313 9.72883 11.9313C9.8995 11.9313 10.0702 11.8659 10.2002 11.7359L15.1348 6.80192C15.3955 6.54126 15.3955 6.11992 15.1348 5.85926C14.8742 5.59859 14.4528 5.59859 14.1922 5.85926L13.7108 6.34059L8.9895 1.61926L9.47083 1.13792C9.7315 0.877256 9.7315 0.455922 9.47083 0.195256C9.21017 -0.0654108 8.78883 -0.0654108 8.52817 0.195256L3.5935 5.12992C3.33283 5.39059 3.33283 5.81192 3.5935 6.07259C3.7235 6.20259 3.89417 6.26792 4.06483 6.26792C4.2355 6.26792 4.40617 6.20259 4.53617 6.07259L5.07617 5.53259L6.96683 7.42326L0.1955 14.1953C-0.0651667 14.4559 -0.0651667 14.8773 0.1955 15.1379C0.3255 15.2679 0.496167 15.3333 0.666833 15.3333C0.8375 15.3333 1.00817 15.2679 1.13817 15.1379L7.91017 8.36592L9.79817 10.2533L9.7975 10.2539ZM12.7688 7.28326L10.7402 9.31126L9.91017 8.48126L11.9388 6.45259L12.7688 7.28259V7.28326ZM6.9095 5.48126L6.01883 4.59059L8.0475 2.56192L8.93817 3.45259L6.9095 5.48126ZM9.88083 4.39526L10.9955 5.50992L8.96683 7.53859L7.85217 6.42392L9.88083 4.39526ZM16.0002 15.3333C16.0002 15.7019 15.7022 15.9999 15.3335 15.9999H6.66683C6.29817 15.9999 6.00017 15.7019 6.00017 15.3333C6.00017 14.9646 6.29817 14.6666 6.66683 14.6666H6.70083C6.8555 13.9066 7.52883 13.3333 8.3335 13.3333H13.6668C14.4722 13.3333 15.1448 13.9066 15.2995 14.6666H15.3335C15.7022 14.6666 16.0002 14.9646 16.0002 15.3333Z" fill="black"/>
</g>
<defs>
<clipPath id="clip0_232_4760">
<rect width="16" height="16" fill="white"/>
</clipPath>
</defs>
</svg>
