<svg width="63" height="63" viewBox="0 0 63 63" fill="none" xmlns="http://www.w3.org/2000/svg">
<path fill-rule="evenodd" clip-rule="evenodd" d="M7.11426 2.6025C6.24054 2.6025 5.47492 3.18728 5.24503 4.03022L2.33878 14.6865C2.29347 14.8526 2.27051 15.024 2.27051 15.1963C2.27051 20.0115 6.17403 23.915 10.9893 23.915C13.7282 23.915 16.1721 22.652 17.7705 20.6768C19.3689 22.652 21.8128 23.915 24.5518 23.915C27.2907 23.915 29.7346 22.652 31.333 20.6768C32.9314 22.652 35.3753 23.915 38.1143 23.915C40.8532 23.915 43.2971 22.652 44.8955 20.6768C46.4939 22.652 48.9378 23.915 51.6768 23.915C56.492 23.915 60.3955 20.0115 60.3955 15.1963C60.3955 15.024 60.3725 14.8526 60.3272 14.6865L57.421 4.03022C57.1911 3.18728 56.4255 2.6025 55.5518 2.6025H7.11426ZM24.5518 20.04C21.8767 20.04 19.708 17.8714 19.708 15.1963C19.708 14.1262 18.8406 13.2588 17.7705 13.2588C16.7004 13.2588 15.833 14.1262 15.833 15.1963C15.833 17.8714 13.6644 20.04 10.9893 20.04C8.39404 20.04 6.27552 17.999 6.15127 15.4346L8.59411 6.4775H54.0719L56.5148 15.4346C56.3905 17.999 54.2719 20.04 51.6768 20.04C49.0017 20.04 46.833 17.8714 46.833 15.1963C46.833 14.1262 45.9656 13.2588 44.8955 13.2588C43.8254 13.2588 42.958 14.1262 42.958 15.1963C42.958 17.8714 40.7894 20.04 38.1143 20.04C35.4392 20.04 33.2705 17.8714 33.2705 15.1963C33.2705 14.1262 32.4031 13.2588 31.333 13.2588C30.2629 13.2588 29.3955 14.1262 29.3955 15.1963C29.3955 17.8714 27.2269 20.04 24.5518 20.04Z" fill="url(#paint0_linear_1482_16890)"/>
<path d="M9.05176 29.7275C9.05176 28.6574 8.18431 27.79 7.11426 27.79C6.04421 27.79 5.17676 28.6574 5.17676 29.7275V51.04C5.17676 56.3902 9.514 60.7275 14.8643 60.7275H47.8018C53.152 60.7275 57.4893 56.3903 57.4893 51.04V29.7275C57.4893 28.6574 56.6218 27.79 55.5518 27.79C54.4817 27.79 53.6143 28.6574 53.6143 29.7275V51.04C53.6143 54.2501 51.0119 56.8525 47.8018 56.8525H14.8643C11.6541 56.8525 9.05176 54.2501 9.05176 51.04V29.7275Z" fill="url(#paint1_linear_1482_16890)"/>
<path d="M26.4893 44.2588C26.4893 43.1887 27.3567 42.3213 28.4268 42.3213H34.2393C35.3093 42.3213 36.1768 43.1887 36.1768 44.2588C36.1768 45.3288 35.3093 46.1963 34.2393 46.1963H28.4268C27.3567 46.1963 26.4893 45.3288 26.4893 44.2588Z" fill="url(#paint2_linear_1482_16890)"/>
<path fill-rule="evenodd" clip-rule="evenodd" d="M22.8276 36.5225C20.4783 36.7185 18.8145 38.986 19.3988 41.3235L20.786 46.8722C21.5407 49.891 24.2531 52.0087 27.3648 52.0087H35.301C38.4127 52.0087 41.1251 49.891 41.8798 46.8722L43.2669 41.3235C43.8513 38.986 42.1874 36.7185 39.8381 36.5225L38.0147 31.0523C37.6764 30.0372 36.5791 29.4885 35.5639 29.8269C34.5488 30.1653 34.0001 31.2626 34.3385 32.2777L35.7489 36.5087H26.9168L28.3272 32.2777C28.6656 31.2626 28.1169 30.1653 27.1019 29.8269C26.0867 29.4885 24.9894 30.0372 24.651 31.0523L22.8276 36.5225ZM24.5453 45.9324L23.1582 40.3837H39.5076L38.1204 45.9324C37.7971 47.2261 36.6346 48.1337 35.301 48.1337H27.3648C26.0312 48.1337 24.8687 47.2261 24.5453 45.9324Z" fill="url(#paint3_linear_1482_16890)"/>
<defs>
<linearGradient id="paint0_linear_1482_16890" x1="31.333" y1="2.6025" x2="31.333" y2="23.915" gradientUnits="userSpaceOnUse">
<stop stop-color="#A4565A"/>
<stop offset="1" stop-color="#D57075"/>
</linearGradient>
<linearGradient id="paint1_linear_1482_16890" x1="31.333" y1="27.79" x2="31.333" y2="60.7275" gradientUnits="userSpaceOnUse">
<stop stop-color="#A4565A"/>
<stop offset="1" stop-color="#D57075"/>
</linearGradient>
<linearGradient id="paint2_linear_1482_16890" x1="31.333" y1="42.3213" x2="31.333" y2="46.1963" gradientUnits="userSpaceOnUse">
<stop stop-color="#A4565A"/>
<stop offset="1" stop-color="#D57075"/>
</linearGradient>
<linearGradient id="paint3_linear_1482_16890" x1="31.3329" y1="29.7269" x2="31.3329" y2="52.0087" gradientUnits="userSpaceOnUse">
<stop stop-color="#A4565A"/>
<stop offset="1" stop-color="#D57075"/>
</linearGradient>
</defs>
</svg>
