<svg width="22" height="23" viewBox="0 0 22 23" fill="none" xmlns="http://www.w3.org/2000/svg">
<rect y="0.832031" width="22" height="22" rx="11" fill="#1512B4"/>
<path d="M12.667 6.49837H9.33366C9.15685 6.49837 8.98728 6.42813 8.86225 6.30311C8.73723 6.17809 8.66699 6.00852 8.66699 5.83171C8.66699 5.65489 8.73723 5.48533 8.86225 5.3603C8.98728 5.23528 9.15685 5.16504 9.33366 5.16504H12.667C12.8438 5.16504 13.0134 5.23528 13.1384 5.3603C13.2634 5.48533 13.3337 5.65489 13.3337 5.83171C13.3337 6.00852 13.2634 6.17809 13.1384 6.30311C13.0134 6.42813 12.8438 6.49837 12.667 6.49837Z" fill="white"/>
<path d="M11.0002 7.16504C9.8794 7.16504 8.78381 7.49738 7.85193 8.12004C6.92006 8.74271 6.19374 9.62772 5.76485 10.6632C5.33595 11.6986 5.22373 12.838 5.44238 13.9372C5.66103 15.0364 6.20073 16.0461 6.99323 16.8386C7.78572 17.6311 8.79543 18.1708 9.89465 18.3895C10.9939 18.6081 12.1333 18.4959 13.1687 18.067C14.2042 17.6381 15.0892 16.9118 15.7118 15.9799C16.3345 15.0481 16.6668 13.9525 16.6668 12.8317C16.6651 11.3294 16.0675 9.88904 15.0052 8.82672C13.9428 7.76439 12.5025 7.1668 11.0002 7.16504ZM12.8668 14.2317C12.8047 14.3145 12.7242 14.3817 12.6316 14.428C12.5391 14.4743 12.437 14.4984 12.3335 14.4984C12.1893 14.4984 12.0489 14.4516 11.9335 14.365L10.6002 13.365C10.5174 13.3029 10.4502 13.2224 10.4039 13.1298C10.3576 13.0373 10.3335 12.9352 10.3335 12.8317V11.165C10.3335 10.9882 10.4037 10.8187 10.5288 10.6936C10.6538 10.5686 10.8234 10.4984 11.0002 10.4984C11.177 10.4984 11.3465 10.5686 11.4716 10.6936C11.5966 10.8187 11.6668 10.9882 11.6668 11.165V12.4984L12.7335 13.2984C12.8035 13.3509 12.8625 13.4167 12.9071 13.492C12.9518 13.5674 12.9811 13.6508 12.9935 13.7374C13.0058 13.8241 13.001 13.9124 12.9793 13.9972C12.9576 14.082 12.9194 14.1617 12.8668 14.2317Z" fill="white"/>
</svg>
