<svg width="22" height="23" viewBox="0 0 22 23" fill="none" xmlns="http://www.w3.org/2000/svg">
<rect y="0.832031" width="22" height="22" rx="11" fill="#DD3333" fill-opacity="0.1"/>
<path d="M16.6641 9.32964C16.7188 9.27541 16.7622 9.21089 16.7918 9.13981C16.8214 9.06872 16.8367 8.99248 16.8367 8.91547C16.8367 8.83847 16.8214 8.76222 16.7918 8.69114C16.7622 8.62005 16.7188 8.55553 16.6641 8.50131L15.4974 7.33464C15.4431 7.28025 15.3785 7.23711 15.3074 7.20767C15.2364 7.17824 15.1602 7.16309 15.0833 7.16309C14.9279 7.16309 14.779 7.2248 14.6691 7.33464C14.5593 7.44448 14.4976 7.59346 14.4976 7.74881C14.4976 7.90415 14.5593 8.05313 14.6691 8.16297L15.8358 9.32964C15.89 9.38431 15.9545 9.42771 16.0256 9.45733C16.0967 9.48694 16.1729 9.50219 16.2499 9.50219C16.327 9.50219 16.4032 9.48694 16.4743 9.45733C16.5454 9.42771 16.6099 9.38431 16.6641 9.32964Z" fill="#DD3333"/>
<path d="M11 17.6657C12.2636 17.6645 13.4791 17.1809 14.3982 16.3136C15.3172 15.4464 15.8705 14.261 15.945 12.9996C16.0194 11.7381 15.6095 10.4958 14.7988 9.5265C13.9882 8.55716 12.838 7.9339 11.5833 7.78402V7.16569H12.1666C12.3214 7.16569 12.4697 7.10423 12.5791 6.99484C12.6885 6.88544 12.75 6.73707 12.75 6.58236C12.75 6.42765 12.6885 6.27927 12.5791 6.16988C12.4697 6.06048 12.3214 5.99902 12.1666 5.99902H9.83331C9.67861 5.99902 9.53023 6.06048 9.42084 6.16988C9.31144 6.27927 9.24998 6.42765 9.24998 6.58236C9.24998 6.73707 9.31144 6.88544 9.42084 6.99484C9.53023 7.10423 9.67861 7.16569 9.83331 7.16569H10.4166V7.78402C9.16194 7.9339 8.01179 8.55716 7.20115 9.5265C6.39051 10.4958 5.98055 11.7381 6.05501 12.9996C6.12947 14.261 6.68275 15.4464 7.6018 16.3136C8.52086 17.1809 9.73635 17.6645 11 17.6657ZM9.47165 10.794C9.59253 10.6986 9.74623 10.6549 9.89921 10.6724C10.0522 10.6899 10.1921 10.7672 10.2883 10.8874L11.0525 11.8324C11.2229 11.8426 11.3867 11.9025 11.5235 12.0047C11.6603 12.1068 11.7642 12.2468 11.8225 12.4073C11.8807 12.5678 11.8908 12.7419 11.8513 12.908C11.8118 13.0741 11.7246 13.2251 11.6004 13.3422C11.4762 13.4594 11.3204 13.5377 11.1523 13.5674C10.9841 13.5971 10.811 13.577 10.6541 13.5095C10.4973 13.442 10.3636 13.3301 10.2696 13.1876C10.1756 13.045 10.1253 12.8781 10.125 12.7074C10.1221 12.6607 10.1221 12.614 10.125 12.5674L9.36665 11.6165C9.31916 11.5558 9.28418 11.4862 9.26374 11.4119C9.2433 11.3375 9.2378 11.2599 9.24757 11.1834C9.25733 11.1069 9.28216 11.0331 9.32063 10.9663C9.35909 10.8994 9.41042 10.8409 9.47165 10.794Z" fill="#DD3333"/>
</svg>
