<svg width="16" height="16" viewBox="0 0 16 16" fill="none" xmlns="http://www.w3.org/2000/svg">
<g clip-path="url(#clip0_142_13849)">
<path d="M12.6667 5.33333V4.66667C12.6667 3.42899 12.175 2.242 11.2998 1.36684C10.4247 0.491665 9.23769 0 8.00001 0C6.76233 0 5.57535 0.491665 4.70018 1.36684C3.82501 2.242 3.33334 3.42899 3.33334 4.66667V5.33333H1.33334V14C1.33334 14.5304 1.54406 15.0391 1.91913 15.4142C2.2942 15.7893 2.80291 16 3.33334 16H12.6667C13.1971 16 13.7058 15.7893 14.0809 15.4142C14.456 15.0391 14.6667 14.5304 14.6667 14V5.33333H12.6667ZM8.66668 12H7.33334V9.33333H8.66668V12ZM11.3333 5.33333H4.66668V4.66667C4.66668 3.78261 5.01787 2.93477 5.64299 2.30964C6.26811 1.68452 7.11596 1.33333 8.00001 1.33333C8.88407 1.33333 9.73191 1.68452 10.357 2.30964C10.9822 2.93477 11.3333 3.78261 11.3333 4.66667V5.33333Z" fill="#FF0019" fill-opacity="0.97"/>
</g>
<defs>
<clipPath id="clip0_142_13849">
<rect width="16" height="16" fill="white"/>
</clipPath>
</defs>
</svg>
