<svg width="28" height="34" viewBox="0 0 28 34" fill="none" xmlns="http://www.w3.org/2000/svg">
<g clip-path="url(#clip0_234_5974)">
<circle cx="13.5758" cy="19.8873" r="12.3297" fill="white"/>
<path d="M13.6327 33.337C11.8113 33.337 10.0437 32.9738 8.37932 32.2576C6.7721 31.5659 5.32908 30.5761 4.08981 29.3154C2.85074 28.0547 1.87774 26.5863 1.19808 24.9511C0.494176 23.2576 0.137207 21.4592 0.137207 19.606C0.137207 17.7528 0.494176 15.9544 1.19808 14.2609C1.87793 12.6257 2.85074 11.1575 4.08981 9.89657C5.32889 8.63588 6.7721 7.6459 8.37932 6.95438C10.0437 6.2382 11.8111 5.875 13.6327 5.875C15.4543 5.875 17.2217 6.2382 18.8861 6.95438C20.4934 7.64609 21.9364 8.63588 23.1756 9.89657C24.4147 11.1573 25.3877 12.6257 26.0674 14.2609C26.7713 15.9544 27.1283 17.7526 27.1283 19.606C27.1283 21.4593 26.7713 23.2576 26.0674 24.9511C25.3875 26.5863 24.4147 28.0545 23.1756 29.3154C21.9366 30.5761 20.4934 31.5661 18.8861 32.2576C17.2217 32.9738 15.4543 33.337 13.6327 33.337ZM13.6327 7.72471C7.19365 7.72471 1.95519 13.0546 1.95519 19.606C1.95519 26.1574 7.19365 31.4873 13.6327 31.4873C20.0718 31.4873 25.3103 26.1574 25.3103 19.606C25.3103 13.0546 20.0718 7.72471 13.6327 7.72471Z" fill="#333333"/>
<path d="M13.633 9.7837C13.9138 9.7837 14.1414 9.55208 14.1414 9.26636C14.1414 8.98064 13.9138 8.74902 13.633 8.74902C13.3522 8.74902 13.1245 8.98064 13.1245 9.26636C13.1245 9.55208 13.3522 9.7837 13.633 9.7837Z" fill="#333333"/>
<path d="M13.633 30.4644C13.9138 30.4644 14.1414 30.2327 14.1414 29.947C14.1414 29.6613 13.9138 29.4297 13.633 29.4297C13.3522 29.4297 13.1245 29.6613 13.1245 29.947C13.1245 30.2327 13.3522 30.4644 13.633 30.4644Z" fill="#333333"/>
<path d="M8.59335 11.1673C8.87322 11.1438 9.08137 10.8939 9.05826 10.6092C9.03515 10.3244 8.78954 10.1126 8.50967 10.1361C8.22981 10.1597 8.02166 10.4095 8.04477 10.6943C8.06788 10.979 8.31349 11.1908 8.59335 11.1673Z" fill="#333333"/>
<path d="M19.2057 28.6948C19.2784 28.4189 19.1174 28.1352 18.8461 28.0612C18.5749 27.9873 18.2961 28.1511 18.2234 28.427C18.1507 28.703 18.3117 28.9867 18.5829 29.0607C18.8542 29.1346 19.133 28.9708 19.2057 28.6948Z" fill="#333333"/>
<path d="M4.96333 14.9358C5.23458 14.8619 5.39555 14.5782 5.32287 14.3022C5.25019 14.0262 4.97138 13.8625 4.70013 13.9364C4.42888 14.0104 4.2679 14.294 4.34059 14.57C4.41327 14.846 4.69208 15.0098 4.96333 14.9358Z" fill="#333333"/>
<path d="M22.7777 25.1587C22.9843 24.9652 22.9976 24.6379 22.8074 24.4277C22.6171 24.2176 22.2955 24.2041 22.0889 24.3976C21.8823 24.5911 21.8691 24.9184 22.0593 25.1286C22.2495 25.3388 22.5712 25.3523 22.7777 25.1587Z" fill="#333333"/>
<path d="M3.46941 20.1235C3.75023 20.1235 3.97787 19.8919 3.97787 19.6062C3.97787 19.3205 3.75023 19.0889 3.46941 19.0889C3.18859 19.0889 2.96094 19.3205 2.96094 19.6062C2.96094 19.8919 3.18859 20.1235 3.46941 20.1235Z" fill="#333333"/>
<path d="M23.7956 20.1235C24.0764 20.1235 24.304 19.8919 24.304 19.6062C24.304 19.3205 24.0764 19.0889 23.7956 19.0889C23.5148 19.0889 23.2871 19.3205 23.2871 19.6062C23.2871 19.8919 23.5148 20.1235 23.7956 20.1235Z" fill="#333333"/>
<path d="M5.32287 24.9107C5.39555 24.6347 5.23458 24.351 4.96333 24.2771C4.69208 24.2031 4.41327 24.3669 4.34059 24.6429C4.2679 24.9188 4.42888 25.2025 4.70013 25.2765C4.97138 25.3504 5.25019 25.1866 5.32287 24.9107Z" fill="#333333"/>
<path d="M22.5884 14.9311C22.8558 14.8439 23.0032 14.5527 22.9175 14.2806C22.8319 14.0085 22.5456 13.8586 22.2782 13.9457C22.0107 14.0329 21.8634 14.3241 21.949 14.5962C22.0347 14.8683 22.3209 15.0182 22.5884 14.9311Z" fill="#333333"/>
<path d="M8.96221 28.8676C9.12751 28.6366 9.07748 28.313 8.85047 28.1448C8.62345 27.9767 8.30542 28.0276 8.14012 28.2585C7.97482 28.4895 8.02485 28.8131 8.25187 28.9813C8.47888 29.1495 8.79691 29.0986 8.96221 28.8676Z" fill="#333333"/>
<path d="M18.8461 11.1507C19.1174 11.0767 19.2784 10.7931 19.2057 10.5171C19.133 10.2411 18.8542 10.0773 18.5829 10.1513C18.3117 10.2252 18.1507 10.5089 18.2234 10.7849C18.2961 11.0609 18.5749 11.2246 18.8461 11.1507Z" fill="#333333"/>
<path d="M16.6279 0.832031H10.6382C10.0854 0.832031 9.63721 1.28803 9.63721 1.85053V3.36497C9.63721 3.92747 10.0854 4.38347 10.6382 4.38347H16.6279C17.1808 4.38347 17.629 3.92747 17.629 3.36497V1.85053C17.629 1.28803 17.1808 0.832031 16.6279 0.832031Z" fill="#333333"/>
<path d="M14.8324 3.49609H12.4326V6.45562H14.8324V3.49609Z" fill="#333333"/>
<path d="M15.1344 19.7834V15.7405C15.1344 14.9869 14.5234 14.376 13.7698 14.376C13.0162 14.376 12.4053 14.9869 12.4053 15.7405V19.7834C12.4053 20.537 13.0162 21.148 13.7698 21.148C14.5234 21.148 15.1344 20.537 15.1344 19.7834Z" fill="#333333"/>
<path d="M13.7606 21.1482L20.6036 21.1482C21.3516 21.1482 21.958 20.5419 21.958 19.7938C21.958 19.0458 21.3516 18.4395 20.6036 18.4395L13.7606 18.4395C13.0126 18.4395 12.4062 19.0458 12.4062 19.7938C12.4062 20.5419 13.0126 21.1482 13.7606 21.1482Z" fill="#333333"/>
<path d="M3.15005 6.05577L0.314184 8.94111C0.0619386 9.19776 0.0619386 9.61394 0.314184 9.8704L0.927566 10.4945C1.17981 10.7511 1.58867 10.7511 1.84091 10.4945L4.67679 7.60913C4.92903 7.35249 4.92903 6.9363 4.67679 6.67985L4.0634 6.05577C3.81116 5.79912 3.40211 5.79912 3.15005 6.05577Z" fill="#333333"/>
<path d="M3.28368 7.77109L2.00098 9.07617L4.05779 11.1689L5.34049 9.8638L3.28368 7.77109Z" fill="#333333"/>
</g>
<defs>
<clipPath id="clip0_234_5974">
<rect width="27" height="33" fill="white" transform="translate(0.125 0.832031)"/>
</clipPath>
</defs>
</svg>
