<svg width="22" height="22" viewBox="0 0 22 22" fill="none" xmlns="http://www.w3.org/2000/svg">
<g clip-path="url(#clip0_866_32)">
<path d="M17.4167 5.4999H16.2928C17.5881 4.2349 17.7861 2.57115 16.7924 1.24657C16.2928 0.579234 15.5641 0.148401 14.74 0.0310673C13.9132 -0.089016 13.0946 0.124567 12.4291 0.623234C11.8076 1.0889 11.3492 1.68198 11.011 2.28515C10.6728 1.68107 10.2144 1.0889 9.59292 0.623234C8.92742 0.123651 8.107 -0.089016 7.28292 0.0310673C6.45883 0.148401 5.73008 0.580151 5.2305 1.24657C4.24233 2.56382 4.433 4.21657 5.73192 5.4999H4.58333C2.05608 5.4999 0 7.55598 0 10.0832V17.4166C0 19.9438 2.05608 21.9999 4.58333 21.9999H17.4167C19.9439 21.9999 22 19.9438 22 17.4166V10.0832C22 7.55598 19.9439 5.4999 17.4167 5.4999ZM13.53 2.0899C13.7546 1.92123 14.0223 1.83323 14.2973 1.83323C14.6667 1.83323 15.1204 2.07248 15.3267 2.34657C15.9142 3.1294 15.3661 3.85357 15.0123 4.19182C13.5813 5.4614 12.0633 5.4999 11.9341 5.50082H11.9222C11.9396 5.4174 11.9451 5.33032 11.9377 5.2414L11.9359 5.22215C12.0175 4.67398 12.3585 2.96807 13.53 2.0899ZM7.03633 4.2129C6.65683 3.85082 6.10958 3.1294 6.69717 2.34565C6.90342 2.07157 7.20317 1.89373 7.54233 1.84515C7.88425 1.80115 8.21975 1.88457 8.49383 2.0899C9.66625 2.96898 10.0072 4.67673 10.0888 5.22123L10.087 5.24048C10.0797 5.3294 10.0852 5.41648 10.1026 5.4999H10.0907C9.96142 5.4999 8.44342 5.46048 7.03633 4.2129ZM4.58333 7.33232H9.922C9.23358 9.12073 6.5615 9.16473 6.41483 9.16565C5.90883 9.16565 5.49908 9.57632 5.49908 10.0823C5.49908 10.5883 5.90975 10.999 6.41575 10.999C7.71467 10.999 9.80467 10.5517 10.9991 9.11432C12.1935 10.5526 14.2835 10.999 15.5824 10.999C16.0884 10.999 16.4991 10.5892 16.4991 10.0823C16.4991 9.5754 16.0884 9.16565 15.5824 9.16565C15.4523 9.16565 12.7609 9.14182 12.0743 7.33232H17.4158C18.9319 7.33232 20.1658 8.56615 20.1658 10.0823V15.5823H1.83333V10.0823C1.83333 8.56615 3.06717 7.33232 4.58333 7.33232ZM17.4167 20.1657H4.58333C3.06717 20.1657 1.83333 18.9318 1.83333 17.4157H20.1667C20.1667 18.9318 18.9328 20.1657 17.4167 20.1657Z" fill="black"/>
</g>
<defs>
<clipPath id="clip0_866_32">
<rect width="22" height="22" fill="white"/>
</clipPath>
</defs>
</svg>
