<svg width="22" height="22" viewBox="0 0 22 22" fill="none" xmlns="http://www.w3.org/2000/svg">
<g clip-path="url(#clip0_866_14)">
<path d="M12.8333 9.16664H9.16667C8.15558 9.16664 7.33333 9.98889 7.33333 11V14.6666C7.33333 15.6777 8.15558 16.5 9.16667 16.5H12.8333C13.8444 16.5 14.6667 15.6777 14.6667 14.6666V11C14.6667 9.98889 13.8444 9.16664 12.8333 9.16664ZM9.16667 14.6666V11H12.8333V14.6666H9.16667ZM20.1667 5.24697V1.83331C20.1667 1.32639 19.756 0.916641 19.25 0.916641C18.744 0.916641 18.3333 1.32639 18.3333 1.83331V4.00306L13.5639 0.783725C12.0065 -0.266775 9.9935 -0.266775 8.43608 0.783725L2.02033 5.11406C0.755333 5.96747 0 7.38648 0 8.91364V17.4166C0 19.9439 2.05608 22 4.58333 22H17.4167C19.9439 22 22 19.9439 22 17.4166V8.91364C22 7.46439 21.318 6.10956 20.1667 5.24697ZM20.1667 17.4166C20.1667 18.9328 18.9328 20.1666 17.4167 20.1666H4.58333C3.06717 20.1666 1.83333 18.9328 1.83333 17.4166V8.91364C1.83333 7.99789 2.28617 7.14631 3.04517 6.63481L9.46183 2.30447C9.92933 1.98822 10.4647 1.83056 11 1.83056C11.5353 1.83056 12.0707 1.98822 12.5382 2.30447L18.9548 6.63481C19.7138 7.14722 20.1667 7.99789 20.1667 8.91364V17.4166Z" fill="#404040"/>
</g>
<defs>
<clipPath id="clip0_866_14">
<rect width="22" height="22" fill="white"/>
</clipPath>
</defs>
</svg>
