<svg width="22" height="22" viewBox="0 0 22 22" fill="none" xmlns="http://www.w3.org/2000/svg">
<g clip-path="url(#clip0_866_18)">
<path d="M17.4167 1.83333H16.5V0.916667C16.5 0.410667 16.0893 0 15.5833 0C15.0773 0 14.6667 0.410667 14.6667 0.916667V1.83333H7.33333V0.916667C7.33333 0.410667 6.92267 0 6.41667 0C5.91067 0 5.5 0.410667 5.5 0.916667V1.83333H4.58333C2.05608 1.83333 0 3.88942 0 6.41667V17.4167C0 19.9439 2.05608 22 4.58333 22H17.4167C19.9439 22 22 19.9439 22 17.4167V6.41667C22 3.88942 19.9439 1.83333 17.4167 1.83333ZM4.58333 3.66667H17.4167C18.9328 3.66667 20.1667 4.9005 20.1667 6.41667V7.33333H1.83333V6.41667C1.83333 4.9005 3.06717 3.66667 4.58333 3.66667ZM17.4167 20.1667H4.58333C3.06717 20.1667 1.83333 18.9328 1.83333 17.4167V9.16667H20.1667V17.4167C20.1667 18.9328 18.9328 20.1667 17.4167 20.1667ZM15.0306 14.0727C15.0306 14.4201 14.7886 14.7125 14.5118 14.8665L13.0781 15.664L13.7143 17.3993C13.8371 17.7357 13.7262 18.1124 13.4402 18.3278C13.1477 18.5478 12.7444 18.5451 12.4548 18.3214L11.0284 17.2187L9.60208 18.3214C9.31242 18.5451 8.90908 18.5478 8.61667 18.3278C8.33067 18.1124 8.21975 17.7357 8.34258 17.3993L8.97875 15.664L7.54508 14.8665C7.26825 14.7125 7.02625 14.4201 7.02625 14.0727C7.02625 13.7784 7.282 13.453 7.69633 13.453H9.75608L10.3024 11.3602C10.3886 11.0284 10.6865 10.7974 11.0284 10.791C11.3703 10.7974 11.6683 11.0284 11.7544 11.3602L12.3007 13.453H14.3605C14.7748 13.453 15.0306 13.7775 15.0306 14.0727Z" fill="#404040"/>
</g>
<defs>
<clipPath id="clip0_866_18">
<rect width="22" height="22" fill="white"/>
</clipPath>
</defs>
</svg>
