<svg width="22" height="22" viewBox="0 0 22 22" fill="none" xmlns="http://www.w3.org/2000/svg">
<path d="M11 0C4.93442 0 0 4.93442 0 11C0 17.0656 4.93442 22 11 22C17.0656 22 22 17.0656 22 11C22 4.93442 17.0656 0 11 0ZM7.33333 19.4003V19.25C7.33333 17.2278 8.97783 15.5833 11 15.5833C13.0222 15.5833 14.6667 17.2278 14.6667 19.25V19.4003C13.5428 19.8926 12.3035 20.1667 11 20.1667C9.6965 20.1667 8.45717 19.8926 7.33333 19.4003ZM16.4312 18.3801C16.0133 15.7593 13.7372 13.75 11 13.75C8.26283 13.75 5.98767 15.7593 5.56875 18.3801C3.30458 16.709 1.83333 14.0232 1.83333 11C1.83333 5.9455 5.9455 1.83333 11 1.83333C16.0545 1.83333 20.1667 5.9455 20.1667 11C20.1667 14.0232 18.6954 16.709 16.4312 18.3801ZM11 4.58333C8.97783 4.58333 7.33333 6.22783 7.33333 8.25C7.33333 10.2722 8.97783 11.9167 11 11.9167C13.0222 11.9167 14.6667 10.2722 14.6667 8.25C14.6667 6.22783 13.0222 4.58333 11 4.58333ZM11 10.0833C9.98892 10.0833 9.16667 9.26108 9.16667 8.25C9.16667 7.23892 9.98892 6.41667 11 6.41667C12.0111 6.41667 12.8333 7.23892 12.8333 8.25C12.8333 9.26108 12.0111 10.0833 11 10.0833Z" fill="#404040"/>
</svg>
