<svg width="16" height="16" viewBox="0 0 16 16" fill="none" xmlns="http://www.w3.org/2000/svg">
<g clip-path="url(#clip0_232_4772)">
<path d="M15.662 7.34469C15.3373 6.90869 14.8393 6.65803 14.2953 6.65803H14V5.33336C14 3.49536 12.5047 2.00003 10.6667 2.00003H7.296C7.19333 2.00003 7.08933 1.97536 6.998 1.93003L4.89467 0.878025C4.61867 0.740025 4.30933 0.667359 4 0.667359H2.66667C1.196 0.666692 0 1.86269 0 3.33336V12C0 13.838 1.49533 15.3334 3.33333 15.3334H11.7053C13.1893 15.3334 14.472 14.3787 14.9067 12.9287L15.928 8.85136C16.084 8.33003 15.9867 7.78136 15.662 7.34469ZM1.33333 12V3.33336C1.33333 2.59803 1.93133 2.00003 2.66667 2.00003H4C4.10267 2.00003 4.20667 2.02469 4.298 2.07003L6.40133 3.12203C6.67733 3.26003 6.98667 3.33269 7.296 3.33269H10.6667C11.7693 3.33269 12.6667 4.23003 12.6667 5.33269V6.65736H5.74333C4.61 6.65736 3.598 7.37669 3.21733 8.47069L1.75733 13.2294C1.492 12.89 1.33333 12.4634 1.33333 12ZM14.6427 8.49803L13.6213 12.5747C13.3653 13.4274 12.5953 14 11.7053 14H3.33333C3.19467 14 3.05933 13.986 2.92867 13.9587L4.48467 8.88603C4.67067 8.35069 5.17733 7.99136 5.744 7.99136H14.296C14.4573 7.99136 14.5513 8.08469 14.5927 8.14069C14.634 8.19669 14.6967 8.31336 14.6427 8.49803Z" fill="black"/>
</g>
<defs>
<clipPath id="clip0_232_4772">
<rect width="16" height="16" fill="white"/>
</clipPath>
</defs>
</svg>
