<svg width="41" height="57" viewBox="0 0 41 57" fill="none" xmlns="http://www.w3.org/2000/svg">
<path d="M39.4445 24.3508C39.212 23.7308 38.6695 23.2658 38.0237 23.1108C37.3778 22.9817 36.6803 23.1883 36.2153 23.6792L35.182 24.79C35.182 20.5275 34.2262 14.6892 30.0928 9.70333C26.0628 4.84667 21.697 1.41083 21.5162 1.28167C21.0253 0.894166 20.3795 0.764999 19.8112 0.945833C19.217 1.10083 18.7262 1.54 18.5195 2.10833C18.5195 2.16 16.1428 8.25667 13.5078 12.6225C11.8287 15.4383 10.6662 17.6858 9.83951 20.6825C9.47784 19.985 9.11618 19.1842 8.72868 18.3058C8.44451 17.6342 7.79868 17.1692 7.07534 17.1433C6.30034 17.0658 5.65451 17.4533 5.26701 18.0733C5.06034 18.4092 0.30701 26.4692 0.952844 36.4408C0.978677 47.4458 9.96868 56.3842 20.9737 56.3842C31.9787 56.3842 40.9945 47.3942 40.9945 36.3633C40.9945 28.665 39.4703 24.48 39.4187 24.2992L39.4445 24.3508ZM12.9653 44.5525C12.9653 43.545 13.0428 42.5892 13.1462 41.7883L14.877 43.1575C15.497 43.6483 16.3237 43.7 17.0212 43.3383C17.6928 42.9508 18.1062 42.2017 18.0028 41.4267C18.0028 41.375 17.5895 37.3708 19.217 32.3333C19.5528 31.3258 20.1212 30.37 20.7153 29.6208C21.2062 30.7058 21.852 31.9717 22.4978 33.0825C22.8595 33.7025 23.4537 34.4 24.2028 35.3042C26.192 37.6808 29.1628 41.2717 28.9562 44.4492V44.5783C28.9562 48.97 25.3912 52.5608 20.9737 52.5608H20.922C16.5303 52.535 12.9912 48.97 12.9912 44.5783L12.9653 44.5525ZM32.3403 47.885C32.6503 46.8517 32.8312 45.7667 32.8312 44.63C33.1153 39.9025 29.5503 35.64 27.1737 32.7983C26.5795 32.1008 26.037 31.4292 25.8045 31.0675C24.4095 28.7167 23.1437 25.4617 23.1178 25.4358C22.8853 24.8675 22.3945 24.4283 21.8003 24.2475C21.2062 24.0925 20.5603 24.2475 20.0695 24.635C19.9403 24.7383 16.7112 27.425 15.497 31.145C14.6962 33.625 14.3087 35.8983 14.1537 37.6808L13.0687 36.8283C12.5778 36.4408 11.9062 36.3117 11.312 36.4925C10.692 36.6733 10.227 37.1383 10.0203 37.7583C9.99451 37.8875 9.06451 40.8067 9.06451 44.5783C9.06451 45.6892 9.21951 46.7483 9.50368 47.7817C6.61034 44.8625 4.82784 40.8583 4.82784 36.4408C4.82784 36.3892 4.82784 36.3633 4.82784 36.3117C4.49201 31.2225 5.80951 26.5983 6.97201 23.6275C7.74701 24.9708 8.54784 26.0558 9.40034 26.96C9.91701 27.5025 10.692 27.6833 11.3895 27.4767C12.087 27.2442 12.6037 26.65 12.7328 25.9267C13.5078 20.8633 14.567 18.4867 16.8403 14.715C18.5712 11.8217 20.147 8.38583 21.1287 6.08667C22.7045 7.48167 24.9778 9.6775 27.122 12.2608C33.2187 19.6233 30.842 29.7758 30.8162 29.8792C30.6095 30.7317 30.997 31.61 31.772 32.0492C32.547 32.4625 33.5028 32.3075 34.097 31.6875L36.577 29.0783C36.887 30.8608 37.1453 33.3667 37.1453 36.5183C37.1453 41.0133 35.3112 45.0692 32.3403 48.0142V47.885Z" fill="url(#paint0_linear_1482_16877)"/>
<defs>
<linearGradient id="paint0_linear_1482_16877" x1="20.9435" y1="0.865387" x2="20.9435" y2="56.3842" gradientUnits="userSpaceOnUse">
<stop stop-color="#A4565A"/>
<stop offset="1" stop-color="#D57075"/>
</linearGradient>
</defs>
</svg>
