<svg width="16" height="16" viewBox="0 0 16 16" fill="none" xmlns="http://www.w3.org/2000/svg">
<path fill-rule="evenodd" clip-rule="evenodd" d="M4.5 0.5C4.77615 0.5 5 0.723857 5 1L5 3.5C5 3.77615 4.77615 4 4.5 4C4.22385 4 4 3.77615 4 3.5L4 2.75L2.5 2.75C1.94772 2.75 1.5 3.19772 1.5 3.75L1.5 5L14.5 5L14.5 3.75C14.5 3.19772 14.0523 2.75 13.5 2.75L12.75 2.75L12.75 1.75L13.5 1.75C14.6046 1.75 15.5 2.64542 15.5 3.75L15.5 13.5C15.5 14.6046 14.6046 15.5 13.5 15.5L2.5 15.5C1.39543 15.5 0.499998 14.6046 0.499999 13.5L0.499999 5.5L0.5 3.75C0.5 2.64542 1.39543 1.75 2.5 1.75L4 1.75L4 1C4 0.723857 4.22385 0.5 4.5 0.5ZM1.5 6L1.5 13.5C1.5 14.0523 1.94771 14.5 2.5 14.5L13.5 14.5C14.0523 14.5 14.5 14.0523 14.5 13.5L14.5 6L1.5 6Z" fill="black"/>
<path d="M11.5 0.5C11.7761 0.5 12 0.723857 12 1L12 3.5C12 3.77615 11.7761 4 11.5 4C11.2238 4 11 3.77615 11 3.5L11 2.75L5.75 2.75L5.75 1.75L11 1.75L11 1C11 0.723857 11.2239 0.5 11.5 0.5Z" fill="black"/>
</svg>
