<svg width="21" height="20" viewBox="0 0 21 20" fill="none" xmlns="http://www.w3.org/2000/svg">
<g clip-path="url(#clip0_998_1625)">
<path d="M10.5 19.7656C15.8934 19.7656 20.2656 15.3934 20.2656 10C20.2656 4.60659 15.8934 0.234375 10.5 0.234375C5.10659 0.234375 0.734375 4.60659 0.734375 10C0.734375 15.3934 5.10659 19.7656 10.5 19.7656Z" fill="#1877F2"/>
<path d="M11.529 16.6269V10.5898H13.5642L13.8691 8.22654H11.529V6.7215C11.529 6.03889 11.7185 5.57377 12.6973 5.57377H13.9378V3.46592C13.334 3.4019 12.7271 3.37089 12.1199 3.37303C10.3209 3.37303 9.08971 4.47068 9.08971 6.48744V8.22654H7.06201V10.5898H9.08979V16.6269H11.529Z" fill="white"/>
</g>
<defs>
<clipPath id="clip0_998_1625">
<rect width="20" height="20" fill="white" transform="translate(0.5)"/>
</clipPath>
</defs>
</svg>
