<svg width="16" height="16" viewBox="0 0 16 16" fill="none" xmlns="http://www.w3.org/2000/svg">
<path fill-rule="evenodd" clip-rule="evenodd" d="M8.00016 14.6666C11.682 14.6666 14.6668 11.6818 14.6668 7.99998C14.6668 4.31808 11.682 1.33331 8.00016 1.33331C4.31826 1.33331 1.3335 4.31808 1.3335 7.99998C1.3335 11.6818 4.31826 14.6666 8.00016 14.6666ZM9.7679 7.10105C9.96316 6.90585 9.96316 6.58923 9.7679 6.39397C9.57263 6.19871 9.2561 6.19871 9.06083 6.39397L8.00016 7.45465L6.9395 6.39397C6.74423 6.19871 6.42765 6.19871 6.23238 6.39397C6.03712 6.58923 6.03712 6.90585 6.23238 7.10111L7.29303 8.16171L6.23238 9.22238C6.03712 9.41765 6.03712 9.73425 6.23238 9.92951C6.42765 10.1248 6.74423 10.1248 6.9395 9.92951L8.00016 8.86885L9.06083 9.92951C9.2561 10.1248 9.57263 10.1248 9.7679 9.92951C9.96316 9.73425 9.96316 9.41765 9.7679 9.22238L8.70723 8.16171L9.7679 7.10105Z" fill="#DD3333"/>
</svg>
