<svg width="63" height="63" viewBox="0 0 63 63" fill="none" xmlns="http://www.w3.org/2000/svg">
<path d="M31.6634 5.83168C26.5541 5.83168 21.5595 7.34678 17.3112 10.1854C13.0629 13.024 9.7518 17.0586 7.79654 21.779C5.84127 26.4994 5.32969 31.6937 6.32647 36.7048C7.32325 41.716 9.78364 46.3191 13.3965 49.9319C17.0094 53.5448 21.6124 56.0052 26.6236 57.002C31.6348 57.9988 36.829 57.4872 41.5494 55.5319C46.2698 53.5766 50.3044 50.2655 53.1431 46.0172C55.9817 41.769 57.4968 36.7744 57.4968 31.665C57.489 24.816 54.7648 18.2497 49.9218 13.4066C45.0788 8.56364 38.5125 5.83943 31.6634 5.83168ZM31.6634 54.0539C27.2353 54.0539 22.9067 52.7408 19.2248 50.2807C15.543 47.8206 12.6733 44.3239 10.9788 40.2329C9.28422 36.1418 8.84085 31.6402 9.70473 27.2972C10.5686 22.9541 12.7009 18.9648 15.8321 15.8337C18.9632 12.7025 22.9525 10.5702 27.2956 9.70632C31.6386 8.84244 36.1402 9.28582 40.2313 10.9804C44.3223 12.6749 47.819 15.5446 50.2791 19.2264C52.7392 22.9082 54.0523 27.2369 54.0523 31.665C54.0455 37.6008 51.6845 43.2915 47.4872 47.4888C43.29 51.686 37.5992 54.0471 31.6634 54.0539Z" fill="url(#paint0_linear_1546_1210)"/>
<path d="M35.1082 41.9983H33.386V26.4983C33.386 26.0416 33.2045 25.6035 32.8815 25.2806C32.5586 24.9576 32.1205 24.7761 31.6637 24.7761H28.2193C27.7625 24.7761 27.3245 24.9576 27.0015 25.2806C26.6785 25.6035 26.4971 26.0416 26.4971 26.4983C26.4971 26.9551 26.6785 27.3932 27.0015 27.7161C27.3245 28.0391 27.7625 28.2206 28.2193 28.2206H29.9415V41.9983H28.2193C27.7625 41.9983 27.3245 42.1798 27.0015 42.5028C26.6785 42.8258 26.4971 43.2638 26.4971 43.7206C26.4971 44.1773 26.6785 44.6154 27.0015 44.9384C27.3245 45.2613 27.7625 45.4428 28.2193 45.4428H35.1082C35.5649 45.4428 36.003 45.2613 36.326 44.9384C36.649 44.6154 36.8304 44.1773 36.8304 43.7206C36.8304 43.2638 36.649 42.8258 36.326 42.5028C36.003 42.1798 35.5649 41.9983 35.1082 41.9983Z" fill="url(#paint1_linear_1546_1210)"/>
<path d="M31.6636 21.3317C32.6148 21.3317 33.3859 20.5606 33.3859 19.6095C33.3859 18.6583 32.6148 17.8872 31.6636 17.8872C30.7125 17.8872 29.9414 18.6583 29.9414 19.6095C29.9414 20.5606 30.7125 21.3317 31.6636 21.3317Z" fill="url(#paint2_linear_1546_1210)"/>
<defs>
<linearGradient id="paint0_linear_1546_1210" x1="31.6634" y1="5.83168" x2="31.6634" y2="57.4984" gradientUnits="userSpaceOnUse">
<stop stop-color="#A4565A"/>
<stop offset="1" stop-color="#D57075"/>
</linearGradient>
<linearGradient id="paint1_linear_1546_1210" x1="31.6637" y1="24.7761" x2="31.6637" y2="45.4428" gradientUnits="userSpaceOnUse">
<stop stop-color="#A4565A"/>
<stop offset="1" stop-color="#D57075"/>
</linearGradient>
<linearGradient id="paint2_linear_1546_1210" x1="31.6636" y1="17.8872" x2="31.6636" y2="21.3317" gradientUnits="userSpaceOnUse">
<stop stop-color="#A4565A"/>
<stop offset="1" stop-color="#D57075"/>
</linearGradient>
</defs>
</svg>
