<svg width="21" height="20" viewBox="0 0 21 20" fill="none" xmlns="http://www.w3.org/2000/svg">
<g clip-path="url(#clip0_203_2256)">
<path d="M4.93242 12.0865L4.23625 14.6854L1.69176 14.7393C0.931328 13.3288 0.5 11.7151 0.5 10.0003C0.5 8.34203 0.903281 6.77828 1.61812 5.40137H1.61867L3.88398 5.81668L4.87633 8.0684C4.66863 8.67391 4.55543 9.32391 4.55543 10.0003C4.55551 10.7343 4.68848 11.4377 4.93242 12.0865Z" fill="#FBBB00"/>
<path d="M20.3252 8.13184C20.44 8.73676 20.4999 9.36148 20.4999 9.99996C20.4999 10.7159 20.4246 11.4143 20.2812 12.0879C19.7944 14.3802 18.5224 16.3818 16.7604 17.7983L16.7598 17.7978L13.9065 17.6522L13.5027 15.1313C14.6719 14.4456 15.5857 13.3725 16.067 12.0879H10.7197V8.13184H16.145H20.3252Z" fill="#518EF8"/>
<path d="M16.7595 17.7975L16.7601 17.798C15.0464 19.1755 12.8694 19.9996 10.4996 19.9996C6.69141 19.9996 3.38043 17.8711 1.69141 14.7387L4.93207 12.0859C5.77656 14.3398 7.95074 15.9442 10.4996 15.9442C11.5952 15.9442 12.6216 15.648 13.5024 15.131L16.7595 17.7975Z" fill="#28B446"/>
<path d="M16.883 2.30219L13.6434 4.95437C12.7319 4.38461 11.6544 4.05547 10.5 4.05547C7.89344 4.05547 5.67859 5.73348 4.87641 8.06812L1.61871 5.40109H1.61816C3.28246 2.1923 6.6352 0 10.5 0C12.9264 0 15.1511 0.864297 16.883 2.30219Z" fill="#F14336"/>
</g>
<defs>
<clipPath id="clip0_203_2256">
<rect width="20" height="20" fill="white" transform="translate(0.5)"/>
</clipPath>
</defs>
</svg>
