<svg width="20" height="20" viewBox="0 0 20 20" fill="none" xmlns="http://www.w3.org/2000/svg">
<path fill-rule="evenodd" clip-rule="evenodd" d="M13.2161 8.9598L10.8721 11.9838C10.7761 12.1118 10.6321 12.1918 10.4721 12.2078C10.3121 12.2318 10.1521 12.1838 10.0241 12.0878L7.76811 10.3198L5.74411 12.9518C5.63211 13.1038 5.44811 13.1838 5.27211 13.1838C5.14411 13.1838 5.01611 13.1438 4.90411 13.0558C4.64011 12.8558 4.59211 12.4798 4.79211 12.2158L7.19211 9.1038C7.28811 8.9758 7.43211 8.8958 7.59211 8.8798C7.75211 8.8558 7.91211 8.9038 8.04012 8.9998L10.2961 10.7678L12.2641 8.2238C12.4721 7.95981 12.8481 7.91181 13.1121 8.1198C13.3681 8.3198 13.4161 8.6958 13.2161 8.9598ZM17.2961 7.04781C16.8721 7.24781 16.3921 7.35981 15.8961 7.35981C14.0241 7.35981 12.4961 5.83181 12.4961 3.95981C12.4961 3.44781 12.6081 2.96781 12.8161 2.53581C11.9361 2.35181 10.9121 2.26381 9.72812 2.26381C3.96011 2.26381 1.91211 4.30381 1.91211 10.0798C1.91211 15.8558 3.96011 17.8958 9.72812 17.8958C15.5041 17.8958 17.5521 15.8558 17.5521 10.0798C17.5521 8.9198 17.4721 7.91181 17.2961 7.04781Z" fill="#DE341B"/>
<path fill-rule="evenodd" clip-rule="evenodd" d="M15.8962 5.75981C16.2322 5.75981 16.5522 5.66381 16.8162 5.50381C17.3362 5.19181 17.6882 4.61581 17.6882 3.95981C17.6882 2.96781 16.8882 2.15981 15.8962 2.15981C15.2482 2.15981 14.6802 2.50381 14.3602 3.02381C14.1922 3.29581 14.0962 3.61581 14.0962 3.95981C14.0962 4.95181 14.9042 5.75981 15.8962 5.75981Z" fill="#630025"/>
</svg>
