<svg width="20" height="20" viewBox="0 0 20 20" fill="none" xmlns="http://www.w3.org/2000/svg">
<g clip-path="url(#clip0_419_539)">
<path d="M4.375 4.79177C4.375 2.60564 6.14721 0.833435 8.33333 0.833435C10.5195 0.833435 12.2917 2.60564 12.2917 4.79177C12.2917 6.97789 10.5195 8.7501 8.33333 8.7501C6.14721 8.7501 4.375 6.97789 4.375 4.79177Z" fill="#DD3333"/>
<path d="M1.875 13.9584C1.875 11.7723 3.64721 10.0001 5.83333 10.0001H10.8333C12.531 10.0001 13.979 11.0688 14.5414 12.5702L14.284 12.8577C13.7052 13.5041 13.3802 13.8613 13.125 14.079C12.8698 13.8613 12.5447 13.5041 11.966 12.8577L11.2417 12.0487C10.6277 11.3629 9.57408 11.3047 8.88825 11.9187C8.2025 12.5327 8.1443 13.5863 8.75825 14.2721L9.54725 15.1533C10.0471 15.7119 10.5332 16.2551 10.9951 16.6433C11.4281 17.0072 11.9768 17.3557 12.6716 17.4649C12.1222 17.7535 11.4969 17.9168 10.8333 17.9168H5.83333C3.64721 17.9168 1.875 16.1446 1.875 13.9584Z" fill="#DD3333"/>
<path d="M18.799 11.2504C19.0293 10.9932 19.0074 10.598 18.7503 10.3678C18.4931 10.1375 18.0979 10.1594 17.8677 10.4165L15.0601 13.5525C14.4912 14.1879 14.108 14.6137 13.7804 14.889C13.4684 15.1513 13.2851 15.2084 13.125 15.2084C12.9649 15.2084 12.7816 15.1513 12.4696 14.889C12.142 14.6137 11.7589 14.1879 11.1899 13.5525L10.4657 12.7435C10.2354 12.4864 9.84028 12.4645 9.58311 12.6948C9.32595 12.925 9.30411 13.3201 9.53436 13.5773L10.2896 14.4209C10.8195 15.0128 11.2614 15.5064 11.6654 15.8459C12.0925 16.2049 12.5533 16.4584 13.125 16.4584C13.6968 16.4584 14.1575 16.2049 14.5847 15.8459C14.9886 15.5064 15.4305 15.0128 15.9604 14.4209L18.799 11.2504Z" fill="#630025"/>
</g>
<defs>
<clipPath id="clip0_419_539">
<rect width="20" height="20" fill="white"/>
</clipPath>
</defs>
</svg>
