<svg width="16" height="16" viewBox="0 0 16 16" fill="none" xmlns="http://www.w3.org/2000/svg">
<g clip-path="url(#clip0_232_4766)">
<path d="M16.0001 15.3333C16.0001 15.5101 15.9299 15.6797 15.8048 15.8047C15.6798 15.9297 15.5102 16 15.3334 16H0.666764C0.489954 16 0.320384 15.9297 0.19536 15.8047C0.0703357 15.6797 9.77961e-05 15.5101 9.77961e-05 15.3333C9.77961e-05 15.1565 0.0703357 14.9869 0.19536 14.8619C0.320384 14.7369 0.489954 14.6666 0.666764 14.6666H15.3334C15.5102 14.6666 15.6798 14.7369 15.8048 14.8619C15.9299 14.9869 16.0001 15.1565 16.0001 15.3333ZM0.194098 5.70131C0.050446 5.43486 -0.0161058 5.13365 0.00191141 4.83148C0.0199286 4.52931 0.121802 4.23814 0.296098 3.99064C0.580937 3.57272 0.962394 3.22968 1.4081 2.99064L6.40876 0.387976C6.90027 0.132396 7.44611 -0.0010376 8.0001 -0.0010376C8.55409 -0.0010376 9.09992 0.132396 9.59143 0.387976L14.5914 2.99264C15.0371 3.23168 15.4186 3.57472 15.7034 3.99264C15.8777 4.24014 15.9796 4.53131 15.9976 4.83348C16.0156 5.13565 15.9491 5.43686 15.8054 5.70331C15.6508 5.99586 15.4188 6.24038 15.1348 6.41024C14.8508 6.58009 14.5257 6.66878 14.1948 6.66664H14.0001V12H14.6668C14.8436 12 15.0131 12.0702 15.1382 12.1952C15.2632 12.3203 15.3334 12.4898 15.3334 12.6666C15.3334 12.8435 15.2632 13.013 15.1382 13.138C15.0131 13.2631 14.8436 13.3333 14.6668 13.3333H1.33343C1.15662 13.3333 0.987051 13.2631 0.862027 13.138C0.737002 13.013 0.666764 12.8435 0.666764 12.6666C0.666764 12.4898 0.737002 12.3203 0.862027 12.1952C0.987051 12.0702 1.15662 12 1.33343 12H2.0001V6.66664H1.80543C1.4742 6.66871 1.14877 6.57978 0.864624 6.40955C0.580479 6.23933 0.348537 5.99434 0.194098 5.70131ZM3.33343 12H5.33343V6.66664H3.33343V12ZM6.66676 6.66664V12H9.33343V6.66664H6.66676ZM12.6668 6.66664H10.6668V12H12.6668V6.66664ZM1.37543 5.08331C1.41726 5.16043 1.47951 5.22455 1.55535 5.26865C1.6312 5.31274 1.71772 5.33511 1.80543 5.33331H14.1948C14.2825 5.33511 14.369 5.31274 14.4448 5.26865C14.5207 5.22455 14.5829 5.16043 14.6248 5.08331C14.6552 5.03235 14.67 4.97353 14.6671 4.91423C14.6643 4.85492 14.644 4.79778 14.6088 4.74998C14.4472 4.50992 14.2302 4.31234 13.9761 4.17398L8.9761 1.56931C8.67477 1.41293 8.34026 1.33129 8.00076 1.33129C7.66127 1.33129 7.32676 1.41293 7.02543 1.56931L2.02543 4.17398C1.77142 4.31278 1.55445 4.51055 1.39276 4.75064C1.35749 4.79825 1.33703 4.85519 1.33395 4.91436C1.33087 4.97353 1.3453 5.0323 1.37543 5.08331Z" fill="black"/>
</g>
<defs>
<clipPath id="clip0_232_4766">
<rect width="16" height="16" fill="white"/>
</clipPath>
</defs>
</svg>
