<svg width="20" height="20" viewBox="0 0 20 20" fill="none" xmlns="http://www.w3.org/2000/svg">
<path d="M5.39196 7.73328L10.2253 12.5666C10.5503 12.8916 10.5503 13.4166 10.2253 13.7416L9.47529 14.5C8.80029 15.1666 7.73362 15.1666 7.06695 14.5L3.45029 10.8833C2.79196 10.225 2.79196 9.14997 3.45029 8.48331L4.20863 7.72495C4.53363 7.40828 5.06696 7.40828 5.39196 7.73328Z" fill="#931300"/>
<path d="M17.1167 15.8666C16.9917 15.9916 16.8334 16.05 16.6751 16.05C16.5167 16.05 16.3584 15.9916 16.2334 15.8666L12.1084 11.7416L12.5501 11.3L12.9917 10.8583L17.1167 14.9833C17.3584 15.225 17.3584 15.625 17.1167 15.8666Z" fill="#DE341B"/>
<path d="M15.4914 8.49155L12.3164 11.6582C11.9831 11.9916 11.4498 11.9916 11.1164 11.6582L6.30811 6.84992C5.97477 6.51659 5.97477 5.98325 6.30811 5.64992L9.48309 2.47492C10.1414 1.81659 11.2164 1.81659 11.8831 2.47492L15.4998 6.09159C16.1498 6.74992 16.1498 7.81659 15.4914 8.49155Z" fill="#DE341B"/>
<path d="M6.6665 18.125H1.6665C1.32484 18.125 1.0415 17.8416 1.0415 17.5C1.0415 17.1583 1.32484 16.875 1.6665 16.875H6.6665C7.00817 16.875 7.2915 17.1583 7.2915 17.5C7.2915 17.8416 7.00817 18.125 6.6665 18.125Z" fill="#DE341B"/>
</svg>
