<svg width="20" height="20" viewBox="0 0 20 20" fill="none" xmlns="http://www.w3.org/2000/svg">
<path d="M9.29391 8.06119H9.49457V9.28078L9.15691 9.15853C8.97724 9.09353 8.81982 8.89111 8.81982 8.62203C8.81982 8.27011 9.07257 8.06119 9.29391 8.06119Z" fill="#DE341B"/>
<path d="M10.5063 11.9388V10.7193L10.8436 10.8414C11.0233 10.9064 11.1807 11.1089 11.1807 11.3779C11.1807 11.7299 10.9278 11.9388 10.7066 11.9388H10.5063Z" fill="#DE341B"/>
<path fill-rule="evenodd" clip-rule="evenodd" d="M7.47447 2.77528C9.13808 2.40828 10.8622 2.40828 12.5258 2.77528L12.8738 2.85206C15.1973 3.36461 17.0291 5.14283 17.6027 7.4427C18.0216 9.12211 18.0216 10.878 17.6027 12.5574C17.0291 14.8572 15.1973 16.6354 12.8738 17.148L12.5258 17.2248C10.8622 17.5918 9.13808 17.5918 7.47447 17.2248L7.12645 17.148C4.80302 16.6354 2.97128 14.8572 2.39765 12.5574C1.97878 10.878 1.97878 9.12211 2.39765 7.44269C2.97128 5.14283 4.80302 3.36461 7.12645 2.85206L7.47447 2.77528ZM10.5063 6.64146C10.5063 6.36323 10.2798 6.13768 10.0004 6.13768C9.721 6.13768 9.4945 6.36323 9.4945 6.64146V7.05362H9.29383C8.43266 7.05362 7.8079 7.79797 7.8079 8.62203C7.8079 9.26936 8.1903 9.8807 8.811 10.1054L9.4945 10.3529V11.9388H9.43808C9.13708 11.9388 8.81975 11.6597 8.81975 11.2213C8.81975 10.943 8.59325 10.7175 8.31381 10.7175C8.0344 10.7175 7.8079 10.943 7.8079 11.2213C7.8079 12.1319 8.49725 12.9464 9.43808 12.9464H9.4945V13.3585C9.4945 13.6368 9.721 13.8624 10.0004 13.8624C10.2798 13.8624 10.5063 13.6368 10.5063 13.3585V12.9464H10.7066C11.5677 12.9464 12.1925 12.202 12.1925 11.3779C12.1925 10.7306 11.8101 10.1193 11.1893 9.89453L10.5063 9.6472V8.06119H10.5623C10.8633 8.06119 11.1807 8.34028 11.1807 8.7787C11.1807 9.05695 11.4072 9.28245 11.6866 9.28245C11.966 9.28245 12.1925 9.05695 12.1925 8.7787C12.1925 7.86812 11.5032 7.05362 10.5623 7.05362H10.5063V6.64146Z" fill="#DE341B"/>
</svg>
