<svg width="18" height="18" viewBox="0 0 18 18" fill="none" xmlns="http://www.w3.org/2000/svg">
<path d="M17.1231 6.87905L14.2139 3.9698C13.9159 3.68205 13.4412 3.69031 13.1534 3.98826C12.8727 4.2789 12.8727 4.73969 13.1534 5.03032L16.0627 7.93958C16.1491 8.02771 16.2246 8.12594 16.2877 8.23208C16.2764 8.23208 16.2674 8.22606 16.2562 8.22606L4.49315 8.25008C4.07894 8.25008 3.74316 8.58585 3.74316 9.00006C3.74316 9.41427 4.07894 9.75005 4.49315 9.75005L16.2517 9.72604C16.2726 9.72604 16.2899 9.71553 16.3102 9.71405C16.2436 9.84093 16.1593 9.95761 16.0597 10.0606L13.1504 12.9698C12.8525 13.2576 12.8442 13.7323 13.132 14.0303C13.4197 14.3282 13.8945 14.3365 14.1924 14.0487C14.1987 14.0427 14.2049 14.0365 14.2109 14.0303L17.1202 11.121C18.2913 9.94953 18.2913 8.05053 17.1202 6.87905H17.1231Z" fill="white"/>
<path d="M5.25145 16.5H3.75144C2.50881 16.5 1.50144 15.4926 1.50144 14.25V3.75001C1.50144 2.50738 2.50881 1.50001 3.75144 1.50001H5.25145C5.66566 1.50001 6.00144 1.16423 6.00144 0.750023C6.00144 0.335813 5.6657 0 5.25145 0H3.75144C1.68144 0.00249609 0.00396094 1.67998 0.00146484 3.75001V14.25C0.00396094 16.32 1.68144 17.9975 3.75148 18H5.25149C5.6657 18 6.00148 17.6642 6.00148 17.25C6.00148 16.8358 5.6657 16.5 5.25145 16.5Z" fill="white"/>
</svg>
