<svg width="63" height="63" viewBox="0 0 63 63" fill="none" xmlns="http://www.w3.org/2000/svg">
<path fill-rule="evenodd" clip-rule="evenodd" d="M28.0434 16.599L26.899 20.1201H23.1971C21.5489 20.1201 20.0868 21.1818 19.5778 22.7499C19.0689 24.318 19.6269 26.0359 20.9599 27.0047L23.9566 29.1798L22.8122 32.7009C22.3033 34.269 22.8613 35.9869 24.1943 36.9557C25.5273 37.9244 27.333 37.9244 28.6686 36.9557L31.6627 34.7805L34.6568 36.9557C35.9923 37.9244 37.7981 37.9244 39.1311 36.9557C40.4641 35.9869 41.0221 34.269 40.5132 32.7009L39.3687 29.1798L42.3654 27.0047C43.6984 26.0359 44.2564 24.318 43.7475 22.7499C43.2386 21.1818 41.7764 20.1201 40.1283 20.1201H36.4263L35.2819 16.599C34.773 15.0309 33.3108 13.9692 31.6627 13.9692C30.0145 13.9692 28.5523 15.0309 28.0434 16.599ZM31.6627 17.9992L33.1765 22.6569C33.4348 23.4552 34.1788 23.9951 35.0184 23.9951H39.9138L35.9536 26.8729C35.2742 27.3663 34.99 28.2421 35.2509 29.0403L36.7622 33.6955L32.8019 30.8177C32.1225 30.3242 31.2028 30.3242 30.5234 30.8177L26.5632 33.6955L28.0744 29.0403C28.3353 28.2421 28.0512 27.3663 27.3717 26.8729L23.4115 23.9951H28.3069C29.1465 23.9951 29.8905 23.4552 30.1488 22.6569L31.6627 17.9992Z" fill="url(#paint0_linear_1482_16941)"/>
<path fill-rule="evenodd" clip-rule="evenodd" d="M54.1119 47.1521L49.2785 47.8677C48.2736 48.0175 47.3979 48.6298 46.9148 49.5236L44.5872 53.8197L39.1519 46.0542C38.537 45.1784 37.328 44.964 36.4523 45.5788C35.5765 46.1911 35.3621 47.4001 35.9769 48.2758C35.9769 48.2758 39.9579 53.9618 42.0142 56.8964C42.6549 57.8135 43.7269 58.3328 44.8429 58.2682C45.9615 58.2062 46.9664 57.5681 47.4986 56.5838L50.1672 51.6523L55.7136 50.8308C56.8193 50.668 57.7622 49.9421 58.2065 48.9139C58.6483 47.8858 58.5269 46.7026 57.8836 45.7855C55.7084 42.6778 51.3323 36.4287 51.3323 36.4287C50.72 35.5529 49.511 35.3385 48.6353 35.9533C47.7595 36.5656 47.5451 37.7746 48.1599 38.6503L54.1119 47.1521Z" fill="url(#paint1_linear_1482_16941)"/>
<path fill-rule="evenodd" clip-rule="evenodd" d="M13.1582 51.6523L15.8268 56.5838C16.359 57.5681 17.3639 58.2062 18.4825 58.2682C19.5985 58.3328 20.6705 57.8135 21.3112 56.8964C23.3675 53.9618 27.3485 48.2758 27.3485 48.2758C27.9633 47.4001 27.7489 46.1911 26.8731 45.5788C25.9974 44.964 24.7884 45.1784 24.1735 46.0542L18.7382 53.8197L16.4106 49.5236C15.9275 48.6298 15.0518 48.0175 14.0469 47.8677L9.21346 47.1521L15.1655 38.6503C15.7803 37.7746 15.5659 36.5656 14.6901 35.9533C13.8144 35.3385 12.6054 35.5529 11.9931 36.4287C11.9931 36.4287 7.61696 42.6778 5.44179 45.7855C4.79854 46.7026 4.67713 47.8858 5.11888 48.9139C5.56321 49.9421 6.50613 50.668 7.61179 50.8308L13.1582 51.6523Z" fill="url(#paint2_linear_1482_16941)"/>
<path fill-rule="evenodd" clip-rule="evenodd" d="M31.6628 3.89417C19.1878 3.89417 9.05859 14.0234 9.05859 26.4983C9.05859 38.9733 19.1878 49.1025 31.6628 49.1025C44.1377 49.1025 54.2669 38.9733 54.2669 26.4983C54.2669 14.0234 44.1377 3.89417 31.6628 3.89417ZM31.6628 7.76917C41.9987 7.76917 50.3919 16.1624 50.3919 26.4983C50.3919 36.8343 41.9987 45.2275 31.6628 45.2275C21.3268 45.2275 12.9336 36.8343 12.9336 26.4983C12.9336 16.1624 21.3268 7.76917 31.6628 7.76917Z" fill="url(#paint3_linear_1482_16941)"/>
<defs>
<linearGradient id="paint0_linear_1482_16941" x1="31.6627" y1="13.9692" x2="31.6627" y2="37.6822" gradientUnits="userSpaceOnUse">
<stop stop-color="#A4565A"/>
<stop offset="1" stop-color="#D57075"/>
</linearGradient>
<linearGradient id="paint1_linear_1482_16941" x1="47.0475" y1="35.6024" x2="47.0475" y2="58.2736" gradientUnits="userSpaceOnUse">
<stop stop-color="#A4565A"/>
<stop offset="1" stop-color="#D57075"/>
</linearGradient>
<linearGradient id="paint2_linear_1482_16941" x1="16.2779" y1="35.6024" x2="16.2779" y2="58.2736" gradientUnits="userSpaceOnUse">
<stop stop-color="#A4565A"/>
<stop offset="1" stop-color="#D57075"/>
</linearGradient>
<linearGradient id="paint3_linear_1482_16941" x1="31.6628" y1="3.89417" x2="31.6628" y2="49.1025" gradientUnits="userSpaceOnUse">
<stop stop-color="#A4565A"/>
<stop offset="1" stop-color="#D57075"/>
</linearGradient>
</defs>
</svg>
