<svg width="63" height="63" viewBox="0 0 63 63" fill="none" xmlns="http://www.w3.org/2000/svg">
<path fill-rule="evenodd" clip-rule="evenodd" d="M10.3545 6.4775C8.21439 6.4775 6.47949 8.2124 6.47949 10.3525V29.7275H14.2295C15.2996 29.7275 16.167 30.5949 16.167 31.665C16.167 32.7351 15.2996 33.6025 14.2295 33.6025H6.47949V52.9775C6.47949 55.1176 8.21439 56.8525 10.3545 56.8525H29.7295V35.2589C29.2974 35.7766 28.8516 36.2673 28.3867 36.7349C26.0822 39.0524 23.4106 40.6978 19.8669 42.289C18.8908 42.7274 17.7441 42.2913 17.3058 41.3152C16.8675 40.339 17.3035 39.1924 18.2796 38.754C21.5656 37.2786 23.7818 35.8703 25.6389 34.0026C26.34 33.2975 27.0041 32.5129 27.6615 31.6118L22.1008 30.4203C19.2047 29.7997 17.1357 27.2403 17.1357 24.2786C17.1357 18.5777 24.1189 15.8252 28.0087 19.9928L29.7295 21.8365V6.4775H10.3545ZM33.6045 6.4775V23.022L36.4317 19.9928C40.3215 15.8252 47.3047 18.5777 47.3047 24.2786C47.3047 27.2403 45.2356 29.7997 42.3396 30.4203L36.7788 31.6118C37.4363 32.5129 38.1004 33.2975 38.8014 34.0026C40.6586 35.8703 42.8748 37.2786 46.1608 38.754C47.1369 39.1924 47.5729 40.339 47.1345 41.3152C46.6963 42.2913 45.5496 42.7274 44.5735 42.289C41.0298 40.6978 38.3581 39.0524 36.0537 36.7349C35.1819 35.8582 34.3773 34.8998 33.6045 33.8351V56.8525H52.9795C55.1196 56.8525 56.8545 55.1176 56.8545 52.9775V33.6025H49.1045C48.0344 33.6025 47.167 32.7351 47.167 31.665C47.167 30.5949 48.0344 29.7275 49.1045 29.7275H56.8545V10.3525C56.8545 8.2124 55.1196 6.4775 52.9795 6.4775H33.6045ZM60.7295 10.3525C60.7295 6.0723 57.2597 2.6025 52.9795 2.6025H10.3545C6.07428 2.6025 2.60449 6.07229 2.60449 10.3525V52.9775C2.60449 57.2577 6.07428 60.7275 10.3545 60.7275H31.6643H31.667H52.9795C57.2597 60.7275 60.7295 57.2577 60.7295 52.9775V31.665V10.3525ZM34.5732 28.1215L41.5277 26.6313C42.637 26.3935 43.4297 25.4132 43.4297 24.2786C43.4297 22.0947 40.7546 21.0403 39.2645 22.6368L34.5694 27.6674C34.572 27.7081 34.5732 27.749 34.5732 27.79V28.1215ZM29.7295 27.5157L25.1759 22.6368C23.6858 21.0403 21.0107 22.0947 21.0107 24.2786C21.0107 25.4132 21.8033 26.3935 22.9127 26.6313L29.7295 28.092V27.5157Z" fill="url(#paint0_linear_1482_16881)"/>
<defs>
<linearGradient id="paint0_linear_1482_16881" x1="31.667" y1="2.6025" x2="31.667" y2="60.7275" gradientUnits="userSpaceOnUse">
<stop stop-color="#A4565A"/>
<stop offset="1" stop-color="#D57075"/>
</linearGradient>
</defs>
</svg>
