<svg width="16" height="16" viewBox="0 0 16 16" fill="none" xmlns="http://www.w3.org/2000/svg">
<g clip-path="url(#clip0_232_4748)">
<path d="M15.0367 9.10802L13.77 4.55068C13.3987 3.21557 12.5918 2.04288 11.4775 1.219C10.3633 0.395119 9.00559 -0.0326583 7.6203 0.00366176C6.235 0.0399818 4.9016 0.538315 3.83203 1.41945C2.76247 2.30058 2.01812 3.51395 1.71732 4.86668L0.736655 9.27668C0.628331 9.76397 0.630836 10.2694 0.743983 10.7556C0.85713 11.2418 1.07803 11.6963 1.39038 12.0857C1.70272 12.4751 2.09853 12.7894 2.5486 13.0053C2.99866 13.2213 3.49147 13.3334 3.99065 13.3334H4.73332C4.88633 14.0869 5.29514 14.7643 5.89048 15.2509C6.48582 15.7375 7.23108 16.0034 7.99999 16.0034C8.76889 16.0034 9.51415 15.7375 10.1095 15.2509C10.7048 14.7643 11.1136 14.0869 11.2667 13.3334H11.8253C12.3392 13.3334 12.8461 13.2146 13.3065 12.9863C13.7669 12.758 14.1682 12.4264 14.4792 12.0173C14.7902 11.6082 15.0024 11.1327 15.0992 10.628C15.196 10.1234 15.1742 9.60315 15.0367 9.10802ZM7.99999 14.6667C7.58781 14.665 7.18623 14.536 6.85019 14.2973C6.51414 14.0586 6.26004 13.722 6.12265 13.3334H9.87732C9.73993 13.722 9.48583 14.0586 9.14979 14.2973C8.81374 14.536 8.41216 14.665 7.99999 14.6667ZM13.4173 11.21C13.2316 11.4565 12.9909 11.6562 12.7144 11.7933C12.4379 11.9305 12.1333 12.0012 11.8247 12H3.99065C3.69118 12 3.39554 11.9327 3.12555 11.8031C2.85556 11.6735 2.61812 11.4849 2.43076 11.2513C2.2434 11.0177 2.1109 10.7449 2.04303 10.4532C1.97516 10.1616 1.97367 9.85836 2.03865 9.56602L3.01865 5.15535C3.25489 4.09282 3.83953 3.13975 4.67963 2.44765C5.51972 1.75555 6.56707 1.36413 7.65517 1.33563C8.74327 1.30712 9.80967 1.64316 10.6849 2.29033C11.56 2.9375 12.1938 3.85865 12.4853 4.90735L13.752 9.46468C13.8357 9.7616 13.849 10.0739 13.7909 10.3769C13.7328 10.6799 13.6049 10.9651 13.4173 11.21Z" fill="black"/>
</g>
<defs>
<clipPath id="clip0_232_4748">
<rect width="16" height="16" fill="white"/>
</clipPath>
</defs>
</svg>
