<svg width="90" height="91" viewBox="0 0 90 91" fill="none" xmlns="http://www.w3.org/2000/svg">
<g filter="url(#filter0_d_524_2373)">
<path d="M69.5 41.2002C69.5 54.7313 58.5309 65.7002 45 65.7002C31.469 65.7002 20.5 54.7313 20.5 41.2002C20.5 27.6692 31.469 16.7002 45 16.7002C58.5309 16.7002 69.5 27.6692 69.5 41.2002Z" fill="#DD3333" stroke="white"/>
<mask id="mask0_524_2373" style="mask-type:alpha" maskUnits="userSpaceOnUse" x="20" y="16" width="50" height="51">
<path d="M45 66.2002C58.807 66.2002 70 55.0074 70 41.2002C70 27.3931 58.807 16.2002 45 16.2002C31.1929 16.2002 20 27.3931 20 41.2002C20 55.0074 31.1929 66.2002 45 66.2002Z" fill="#D3D3D3"/>
</mask>
<g mask="url(#mask0_524_2373)">
<path fill-rule="evenodd" clip-rule="evenodd" d="M57.3939 45.8314H57.4323C61.5285 45.8314 64.8746 42.4965 64.8746 38.4331C64.8746 34.3506 61.5285 31.0156 57.4323 31.0156C56.6246 31.0156 55.8554 31.1498 55.1246 31.3798C56.4515 33.3348 57.2208 35.6923 57.2208 38.2415C57.24 40.829 56.4323 43.3206 54.9131 45.3905C55.7015 45.678 56.5285 45.8314 57.3939 45.8314Z" fill="white"/>
<path fill-rule="evenodd" clip-rule="evenodd" d="M32.5476 45.8314H32.6053C33.4707 45.8314 34.2976 45.678 35.0861 45.3905C33.6245 43.3973 32.7591 40.9248 32.7591 38.2415C32.7591 35.6923 33.5284 33.3348 34.8553 31.3798C34.1245 31.1498 33.3553 31.0156 32.5476 31.0156C28.4514 31.0156 25.1245 34.3506 25.1245 38.4331C25.1245 42.4965 28.4514 45.8314 32.5476 45.8314Z" fill="white"/>
<path fill-rule="evenodd" clip-rule="evenodd" d="M44.9911 47.5681H45.0546C47.5449 47.5605 49.8834 46.5849 51.6373 44.8235C53.393 43.0621 54.3546 40.7257 54.3449 38.2474C54.3449 33.105 50.1507 28.9229 44.9911 28.9229C39.8334 28.9229 35.6392 33.105 35.6392 38.2474C35.6392 43.386 39.8334 47.5681 44.9911 47.5681Z" fill="white"/>
<path fill-rule="evenodd" clip-rule="evenodd" d="M57.4515 48.5908C55.2592 48.5908 53.2015 49.0317 51.4707 49.7792C57.5284 51.5233 61.8169 55.7017 61.9322 60.5892C65.0861 60.1867 68.4899 58.9983 68.4899 55.7592C68.4899 51.8683 63.4322 48.5908 57.4515 48.5908Z" fill="white"/>
<path fill-rule="evenodd" clip-rule="evenodd" d="M38.5093 49.76C36.7785 49.0317 34.7208 48.5908 32.5477 48.5908C26.567 48.5908 21.5093 51.8683 21.5093 55.7592C21.5093 58.9983 24.8939 60.1677 28.0477 60.5892C28.1439 55.7017 32.4324 51.5233 38.5093 49.76Z" fill="white"/>
<path fill-rule="evenodd" clip-rule="evenodd" d="M44.9894 51.7285C37.3721 51.7285 30.9355 55.8608 30.9355 60.7522C30.9355 67.0772 41.5124 67.0772 44.9894 67.0772C51.024 67.0772 59.047 66.4255 59.047 60.7924C59.047 55.8781 52.6086 51.7285 44.9894 51.7285Z" fill="white"/>
</g>
</g>
<defs>
<filter id="filter0_d_524_2373" x="0" y="0.200195" width="90" height="90" filterUnits="userSpaceOnUse" color-interpolation-filters="sRGB">
<feFlood flood-opacity="0" result="BackgroundImageFix"/>
<feColorMatrix in="SourceAlpha" type="matrix" values="0 0 0 0 0 0 0 0 0 0 0 0 0 0 0 0 0 0 127 0" result="hardAlpha"/>
<feOffset dy="4"/>
<feGaussianBlur stdDeviation="10"/>
<feComposite in2="hardAlpha" operator="out"/>
<feColorMatrix type="matrix" values="0 0 0 0 0 0 0 0 0 0 0 0 0 0 0 0 0 0 0.02 0"/>
<feBlend mode="normal" in2="BackgroundImageFix" result="effect1_dropShadow_524_2373"/>
<feBlend mode="normal" in="SourceGraphic" in2="effect1_dropShadow_524_2373" result="shape"/>
</filter>
</defs>
</svg>
