<svg width="22" height="23" viewBox="0 0 22 23" fill="none" xmlns="http://www.w3.org/2000/svg">
<rect y="0.832031" width="22" height="22" rx="11" fill="#DD3333" fill-opacity="0.1"/>
<g clip-path="url(#clip0_213_5858)">
<path d="M11 11.6865C12.6914 11.6865 14.0625 10.3154 14.0625 8.62402C14.0625 6.93265 12.6914 5.56152 11 5.56152C9.30863 5.56152 7.9375 6.93265 7.9375 8.62402C7.9375 10.3154 9.30863 11.6865 11 11.6865Z" fill="#DD3333"/>
<path d="M14.4011 12.8069C14.1867 12.5912 13.9519 12.3969 13.6998 12.2267C13.5496 12.1303 13.3766 12.0753 13.1983 12.0671C13.0199 12.0589 12.8426 12.0978 12.6841 12.18C12.1579 12.4301 11.5827 12.5598 11.0001 12.5598C10.4175 12.5598 9.8422 12.4301 9.31601 12.18C9.15769 12.0974 8.98032 12.0583 8.80196 12.0665C8.62359 12.0748 8.4506 12.1301 8.30059 12.227C8.04864 12.3972 7.81371 12.5913 7.59905 12.8066C7.1435 13.2587 6.78375 13.7979 6.54131 14.3921C6.29887 14.9863 6.17871 15.6233 6.188 16.265C6.20019 16.7587 6.40561 17.2278 6.76008 17.5716C7.11455 17.9153 7.58977 18.1063 8.08355 18.1033H13.9169C14.166 18.1039 14.4128 18.0552 14.6431 17.9602C14.8733 17.8651 15.0826 17.7255 15.2587 17.5493C15.4349 17.3732 15.5745 17.1639 15.6696 16.9337C15.7646 16.7034 15.8133 16.4566 15.8127 16.2075C15.8141 15.5755 15.69 14.9495 15.4477 14.3657C15.2054 13.782 14.8496 13.2522 14.4011 12.8069Z" fill="#DD3333"/>
</g>
<defs>
<clipPath id="clip0_213_5858">
<rect width="14" height="14" fill="white" transform="translate(4 4.83203)"/>
</clipPath>
</defs>
</svg>
