<svg width="15" height="15" viewBox="0 0 15 15" fill="none" xmlns="http://www.w3.org/2000/svg">
<path fill-rule="evenodd" clip-rule="evenodd" d="M11.0896 12.0874C11.5027 12.0874 11.8375 11.7516 11.8375 11.3374V10.1374C11.8375 9.88883 12.0384 9.68741 12.2862 9.68741C12.5341 9.68741 12.735 9.88883 12.735 10.1374V11.3374C12.735 12.2487 11.9983 12.9874 11.0896 12.9874H9.89309C9.64524 12.9874 9.44434 12.7859 9.44434 12.5374C9.44434 12.2888 9.64524 12.0874 9.89309 12.0874H11.0896Z" fill="black"/>
<path fill-rule="evenodd" clip-rule="evenodd" d="M11.0896 3.38738C11.5027 3.38738 11.8375 3.72317 11.8375 4.13738V5.33738C11.8375 5.58591 12.0384 5.78738 12.2862 5.78738C12.5341 5.78738 12.735 5.58591 12.735 5.33738V4.13738C12.735 3.22611 11.9983 2.48738 11.0896 2.48738H9.89309C9.64524 2.48738 9.44434 2.68885 9.44434 2.93738C9.44434 3.18591 9.64524 3.38738 9.89309 3.38738H11.0896Z" fill="black"/>
<path fill-rule="evenodd" clip-rule="evenodd" d="M3.90995 12.0874C3.49692 12.0874 3.16208 11.7516 3.16208 11.3374V10.1374C3.16208 9.88883 2.96119 9.68741 2.71337 9.68741C2.46555 9.68741 2.26465 9.88883 2.26465 10.1374V11.3374C2.26465 12.2487 3.00128 12.9874 3.90995 12.9874H5.10653C5.35435 12.9874 5.55525 12.7859 5.55525 12.5374C5.55525 12.2888 5.35435 12.0874 5.10653 12.0874H3.90995Z" fill="black"/>
<path fill-rule="evenodd" clip-rule="evenodd" d="M3.90995 3.38738C3.49692 3.38738 3.16208 3.72317 3.16208 4.13738V5.33738C3.16208 5.58591 2.96119 5.78738 2.71337 5.78738C2.46555 5.78738 2.26465 5.58591 2.26465 5.33738V4.13738C2.26465 3.22611 3.00128 2.48738 3.90995 2.48738H5.10653C5.35435 2.48738 5.55525 2.68885 5.55525 2.93738C5.55525 3.18591 5.35435 3.38738 5.10653 3.38738H3.90995Z" fill="black"/>
<path fill-rule="evenodd" clip-rule="evenodd" d="M13.3332 7.73738C13.3332 7.98588 13.1323 8.18737 12.8845 8.18737H2.11522C1.8674 8.18737 1.6665 7.98588 1.6665 7.73738C1.6665 7.48888 1.8674 7.2874 2.11522 7.2874H12.8845C13.1323 7.2874 13.3332 7.48888 13.3332 7.73738Z" fill="black"/>
</svg>
