<svg width="20" height="20" viewBox="0 0 20 20" fill="none" xmlns="http://www.w3.org/2000/svg">
<path d="M17.0413 16.4521L13.786 13.1968C14.7852 12.0575 15.3364 10.6159 15.3364 9.08643C15.3364 7.41691 14.6862 5.84749 13.5058 4.66707C12.3254 3.48665 10.7559 2.83643 9.08643 2.83643C7.41691 2.83643 5.84749 3.48665 4.66707 4.66707C3.48665 5.84749 2.83643 7.41691 2.83643 9.08643C2.83643 10.7559 3.48665 12.3254 4.66707 13.5058C5.84749 14.6862 7.41691 15.3364 9.08643 15.3364C10.6159 15.3364 12.0575 14.7852 13.1968 13.786L16.4521 17.0413C16.5335 17.1227 16.6401 17.1634 16.7467 17.1634C16.8534 17.1634 16.96 17.1227 17.0413 17.0413C17.2041 16.8786 17.2041 16.6149 17.0413 16.4521ZM5.25627 12.9166C4.23332 11.8934 3.66976 10.5332 3.66976 9.08643C3.66976 7.63969 4.23332 6.27942 5.25627 5.25627C6.27942 4.23332 7.63969 3.66976 9.08643 3.66976C10.5332 3.66976 11.8934 4.23332 12.9166 5.25627C13.9395 6.27942 14.5031 7.63969 14.5031 9.08643C14.5031 10.5332 13.9395 11.8934 12.9166 12.9166C11.8934 13.9395 10.5332 14.5031 9.08643 14.5031C7.63969 14.5031 6.27942 13.9395 5.25627 12.9166Z" fill="white"/>
</svg>
