<svg width="18" height="18" viewBox="0 0 18 18" fill="none" xmlns="http://www.w3.org/2000/svg">
<g clip-path="url(#clip0_109_49)">
<path d="M10.0523 5.09339C9.23059 4.72153 8.42638 4.56229 7.46613 4.56229C4.38513 4.56229 1.80213 6.69211 1.10786 9.55969C1.10786 9.55969 0.729045 11.1047 1.09956 12.6155C1.80566 15.4946 4.37299 17.6471 7.46616 17.6471C11.0794 17.6471 14.0087 14.7181 14.0087 11.1045C14.0087 10.2059 13.8671 9.44544 13.539 8.66604C12.7185 6.75582 11.5334 5.61317 10.0523 5.09339Z" fill="#FDCB50"/>
<path d="M13.5393 8.66609C12.7189 6.75583 11.5338 5.61318 10.0527 5.0934C9.34703 4.77406 8.654 4.61192 7.86426 4.57236C8.0643 6.28306 9.03288 7.79778 10.4567 8.70516V9.19172C10.4567 9.9149 10.8258 10.5881 11.4355 10.977C11.7811 11.1975 12.177 11.3094 12.5745 11.3094C12.8782 11.3094 13.1829 11.2441 13.467 11.1121C13.6532 11.0255 13.8323 10.9303 14.004 10.8273C13.9771 10.0469 13.8331 9.36396 13.5393 8.66609Z" fill="#FD8F01"/>
<path d="M17.0636 3.91339C17.0636 1.94705 15.4696 0.353027 13.5032 0.353027C11.5369 0.353027 9.94287 1.94705 9.94287 3.91339C9.94287 5.55835 11.0585 6.94251 12.5744 7.35111V9.19177C13.6191 8.70616 14.0532 7.96 14.233 7.39879C15.8493 7.06205 17.0636 5.6296 17.0636 3.91339Z" fill="white"/>
<path d="M5.11833 9.90586C5.64159 9.90586 6.06577 9.48168 6.06577 8.95842C6.06577 8.43517 5.64159 8.01099 5.11833 8.01099C4.59508 8.01099 4.1709 8.43517 4.1709 8.95842C4.1709 9.48168 4.59508 9.90586 5.11833 9.90586Z" fill="#170123"/>
<path d="M8.99805 9.17367C9.53046 8.59982 10.4385 8.59982 10.9709 9.17367" stroke="#170123" stroke-width="0.705882" stroke-miterlimit="10" stroke-linecap="round" stroke-linejoin="round"/>
<path d="M10.0523 5.09339C9.23059 4.72153 8.42638 4.56229 7.46613 4.56229C4.38513 4.56229 1.80213 6.69211 1.10786 9.55969C1.10786 9.55969 0.729045 11.1047 1.09956 12.6155C1.80566 15.4946 4.37299 17.6471 7.46616 17.6471C11.0794 17.6471 14.0087 14.7181 14.0087 11.1045C14.0087 10.2059 13.8671 9.44544 13.539 8.66604" stroke="#170123" stroke-width="0.705882" stroke-miterlimit="10" stroke-linecap="round" stroke-linejoin="round"/>
<path d="M3.96191 12.1413C4.43786 13.7292 5.82682 14.8786 7.46641 14.8786C9.106 14.8786 10.495 13.7292 10.9709 12.1413" stroke="#170123" stroke-width="0.705882" stroke-miterlimit="10" stroke-linecap="round" stroke-linejoin="round"/>
<path d="M17.0636 3.91339C17.0636 1.94705 15.4696 0.353027 13.5032 0.353027C11.5369 0.353027 9.94287 1.94705 9.94287 3.91339C9.94287 5.55835 11.0585 6.94251 12.5744 7.35111V9.19177C13.6191 8.70616 14.0532 7.96 14.233 7.39879C15.8493 7.06205 17.0636 5.6296 17.0636 3.91339Z" stroke="#170123" stroke-width="0.705882" stroke-miterlimit="22.9256" stroke-linecap="round" stroke-linejoin="round"/>
<path d="M13.9971 2.8562V5.01475" stroke="#170123" stroke-width="0.705882" stroke-miterlimit="10" stroke-linecap="round" stroke-linejoin="round"/>
<path d="M11.563 2.8562V5.01475" stroke="#170123" stroke-width="0.705882" stroke-miterlimit="10" stroke-linecap="round" stroke-linejoin="round"/>
<path d="M12.9277 2.85614V5.01469" stroke="#170123" stroke-width="0.705882" stroke-miterlimit="10" stroke-linecap="round" stroke-linejoin="round"/>
<path d="M11.563 3.99472H12.9278" stroke="#170123" stroke-width="0.705882" stroke-miterlimit="10" stroke-linecap="round" stroke-linejoin="round"/>
<path d="M15.3647 2.8562V3.93497" stroke="#170123" stroke-width="0.705882" stroke-miterlimit="10" stroke-linecap="round" stroke-linejoin="round"/>
<circle cx="15.3647" cy="5.01481" r="0.352941" fill="#170123"/>
</g>
<defs>
<clipPath id="clip0_109_49">
<rect width="18" height="18" fill="white"/>
</clipPath>
</defs>
</svg>
