<svg width="16" height="17" viewBox="0 0 16 17" fill="none" xmlns="http://www.w3.org/2000/svg">
<path d="M12.6875 6.45703C11.7612 6.45703 10.945 6.00138 10.4323 5.30844L5.99969 7.57816C6.07328 7.829 6.125 8.08897 6.125 8.36328C6.125 8.73534 6.04872 9.08906 5.91694 9.41441L10.5558 12.2059C11.0721 11.6 11.8309 11.207 12.6875 11.207C14.2384 11.207 15.5 12.4686 15.5 14.0195C15.5 15.5704 14.2384 16.832 12.6875 16.832C11.1366 16.832 9.875 15.5704 9.875 14.0195C9.875 13.6621 9.94859 13.3231 10.0707 13.0083L5.41797 10.2087C4.90216 10.7965 4.15428 11.1758 3.3125 11.1758C1.76159 11.1758 0.5 9.91419 0.5 8.36328C0.5 6.81238 1.76159 5.55078 3.3125 5.55078C4.25406 5.55078 5.08409 6.01981 5.59484 6.73222L10.0128 4.46988C9.93147 4.20719 9.875 3.93359 9.875 3.64453C9.875 2.09363 11.1366 0.832031 12.6875 0.832031C14.2384 0.832031 15.5 2.09363 15.5 3.64453C15.5 5.19544 14.2384 6.45703 12.6875 6.45703Z" fill="#DD3333"/>
</svg>
