<svg width="24" height="24" viewBox="0 0 24 24" fill="none" xmlns="http://www.w3.org/2000/svg">
<path fill-rule="evenodd" clip-rule="evenodd" d="M18.154 19.4572C18.8621 19.4572 19.4361 18.8816 19.4361 18.1715V16.1144C19.4361 15.6883 19.7805 15.343 20.2053 15.343C20.6302 15.343 20.9746 15.6883 20.9746 16.1144V18.1715C20.9746 19.7337 19.7118 21.0001 18.154 21.0001H16.1028C15.6779 21.0001 15.3335 20.6547 15.3335 20.2287C15.3335 19.8026 15.6779 19.4572 16.1028 19.4572H18.154Z" fill="white"/>
<path fill-rule="evenodd" clip-rule="evenodd" d="M18.154 4.54286C18.8621 4.54286 19.4361 5.11849 19.4361 5.82857V7.88571C19.4361 8.31176 19.7805 8.65714 20.2053 8.65714C20.6302 8.65714 20.9746 8.31176 20.9746 7.88571V5.82857C20.9746 4.26639 19.7118 3 18.154 3H16.1028C15.6779 3 15.3335 3.34538 15.3335 3.77143C15.3335 4.19748 15.6779 4.54286 16.1028 4.54286H18.154Z" fill="white"/>
<path fill-rule="evenodd" clip-rule="evenodd" d="M5.84639 19.4572C5.13834 19.4572 4.56434 18.8816 4.56434 18.1715V16.1144C4.56434 15.6883 4.21995 15.343 3.79511 15.343C3.37028 15.343 3.02588 15.6883 3.02588 16.1144V18.1715C3.02588 19.7337 4.28867 21.0001 5.84639 21.0001H7.89768C8.32251 21.0001 8.66691 20.6547 8.66691 20.2287C8.66691 19.8026 8.32251 19.4572 7.89768 19.4572H5.84639Z" fill="white"/>
<path fill-rule="evenodd" clip-rule="evenodd" d="M5.84639 4.54286C5.13834 4.54286 4.56434 5.11849 4.56434 5.82857V7.88572C4.56434 8.31176 4.21995 8.65714 3.79511 8.65714C3.37028 8.65714 3.02588 8.31176 3.02588 7.88572V5.82857C3.02588 4.2664 4.28867 3 5.84639 3H7.89768C8.32251 3 8.66691 3.34538 8.66691 3.77143C8.66691 4.19748 8.32251 4.54286 7.89768 4.54286H5.84639Z" fill="white"/>
<path fill-rule="evenodd" clip-rule="evenodd" d="M22 11.9999C22 12.4259 21.6556 12.7713 21.2308 12.7713H2.76923C2.3444 12.7713 2 12.4259 2 11.9999C2 11.5739 2.3444 11.2285 2.76923 11.2285H21.2308C21.6556 11.2285 22 11.5739 22 11.9999Z" fill="white"/>
</svg>
