<svg width="21" height="21" viewBox="0 0 21 21" fill="none" xmlns="http://www.w3.org/2000/svg">
<path fill-rule="evenodd" clip-rule="evenodd" d="M10.504 1.31738C15.5773 1.31738 19.6916 5.4317 19.6916 10.505C19.6916 15.5783 15.5773 19.6926 10.504 19.6926C5.43073 19.6926 1.31641 15.5783 1.31641 10.505C1.31641 5.4317 5.43073 1.31738 10.504 1.31738ZM8.59609 13.4892L6.34674 11.238C5.96353 10.8545 5.96345 10.2293 6.34674 9.84589C6.73011 9.4626 7.35817 9.465 7.73875 9.84589L9.32453 11.4329L13.2694 7.48803C13.6528 7.10466 14.2781 7.10466 14.6614 7.48803C15.0448 7.87132 15.0442 8.49721 14.6614 8.88004L10.0194 13.5221C9.63659 13.9049 9.01069 13.9054 8.6274 13.5221C8.61663 13.5113 8.60624 13.5003 8.59609 13.4892Z" fill="#DD3333"/>
</svg>
