<svg width="62" height="63" viewBox="0 0 62 63" fill="none" xmlns="http://www.w3.org/2000/svg">
<path d="M14.2113 24.07C15.638 24.07 16.7946 22.9134 16.7946 21.4867C16.7946 20.0599 15.638 18.9033 14.2113 18.9033C12.7845 18.9033 11.6279 20.0599 11.6279 21.4867C11.6279 22.9134 12.7845 24.07 14.2113 24.07Z" fill="url(#paint0_linear_1482_16910)"/>
<path d="M47.7952 24.07C49.222 24.07 50.3786 22.9134 50.3786 21.4867C50.3786 20.0599 49.222 18.9033 47.7952 18.9033C46.3685 18.9033 45.2119 20.0599 45.2119 21.4867C45.2119 22.9134 46.3685 24.07 47.7952 24.07Z" fill="url(#paint1_linear_1482_16910)"/>
<path fill-rule="evenodd" clip-rule="evenodd" d="M31.0037 39.8593C27.7823 39.8593 25.168 42.4737 25.168 45.6951C25.168 48.9165 27.7823 51.5308 31.0037 51.5308C34.2251 51.5308 36.8395 48.9165 36.8395 45.6951C36.8395 42.4737 34.2251 39.8593 31.0037 39.8593ZM31.0037 43.7343C32.0861 43.7343 32.9645 44.6127 32.9645 45.6951C32.9645 46.7775 32.0861 47.6558 31.0037 47.6558C29.9213 47.6558 29.043 46.7775 29.043 45.6951C29.043 44.6127 29.9213 43.7343 31.0037 43.7343Z" fill="url(#paint2_linear_1482_16910)"/>
<path fill-rule="evenodd" clip-rule="evenodd" d="M47.7715 39.8826C44.563 39.8826 41.959 42.4866 41.959 45.6951C41.959 48.9036 44.563 51.5076 47.7715 51.5076C50.98 51.5076 53.584 48.9036 53.584 45.6951C53.584 42.4866 50.98 39.8826 47.7715 39.8826ZM47.7715 43.7576C48.841 43.7576 49.709 44.6256 49.709 45.6951C49.709 46.7646 48.841 47.6326 47.7715 47.6326C46.702 47.6326 45.834 46.7646 45.834 45.6951C45.834 44.6256 46.702 43.7576 47.7715 43.7576Z" fill="url(#paint3_linear_1482_16910)"/>
<path fill-rule="evenodd" clip-rule="evenodd" d="M14.2352 39.8593C11.0137 39.8593 8.39941 42.4737 8.39941 45.6951C8.39941 48.9165 11.0137 51.5308 14.2352 51.5308C17.4566 51.5308 20.0709 48.9165 20.0709 45.6951C20.0709 42.4737 17.4566 39.8593 14.2352 39.8593ZM14.2352 43.7343C15.3176 43.7343 16.1959 44.6127 16.1959 45.6951C16.1959 46.7775 15.3176 47.6558 14.2352 47.6558C13.1527 47.6558 12.2744 46.7775 12.2744 45.6951C12.2744 44.6127 13.1527 43.7343 14.2352 43.7343Z" fill="url(#paint4_linear_1482_16910)"/>
<path fill-rule="evenodd" clip-rule="evenodd" d="M5.16992 47.6326H10.3366C11.4061 47.6326 12.2741 46.7646 12.2741 45.6951C12.2741 44.6256 11.4061 43.7576 10.3366 43.7576H5.16992C4.10042 43.7576 3.23242 44.6256 3.23242 45.6951C3.23242 46.7646 4.10042 47.6326 5.16992 47.6326Z" fill="url(#paint5_linear_1482_16910)"/>
<path fill-rule="evenodd" clip-rule="evenodd" d="M18.0869 47.6326H27.1053C28.1748 47.6326 29.0428 46.7646 29.0428 45.6951C29.0428 44.6256 28.1748 43.7576 27.1053 43.7576H18.0869C17.0174 43.7576 16.1494 44.6256 16.1494 45.6951C16.1494 46.7646 17.0174 47.6326 18.0869 47.6326Z" fill="url(#paint6_linear_1482_16910)"/>
<path fill-rule="evenodd" clip-rule="evenodd" d="M34.9014 47.6326H43.8733C44.9428 47.6326 45.8108 46.7646 45.8108 45.6951C45.8108 44.6256 44.9428 43.7576 43.8733 43.7576H34.9014C33.8319 43.7576 32.9639 44.6256 32.9639 45.6951C32.9639 46.7646 33.8319 47.6326 34.9014 47.6326Z" fill="url(#paint7_linear_1482_16910)"/>
<path fill-rule="evenodd" clip-rule="evenodd" d="M51.6309 47.6326H56.8363C57.9058 47.6326 58.7738 46.7646 58.7738 45.6951C58.7738 44.6256 57.9058 43.7576 56.8363 43.7576H51.6309C50.5614 43.7576 49.6934 44.6256 49.6934 45.6951C49.6934 46.7646 50.5614 47.6326 51.6309 47.6326Z" fill="url(#paint8_linear_1482_16910)"/>
<path fill-rule="evenodd" clip-rule="evenodd" d="M14.2119 11.7992C8.86441 11.7992 4.52441 16.1417 4.52441 21.4867C4.52441 30.177 13.1372 36.0153 13.1372 36.0153C13.7882 36.4493 14.6356 36.4493 15.2866 36.0153C15.2866 36.0153 23.8994 30.177 23.8994 21.4867C23.8994 16.1417 19.5594 11.7992 14.2119 11.7992ZM14.2119 15.6742C17.4204 15.6742 20.0244 18.2782 20.0244 21.4867C20.0244 26.5965 16.1494 30.4017 14.2119 31.9853C12.2744 30.4017 8.39941 26.5965 8.39941 21.4867C8.39941 18.2782 11.0034 15.6742 14.2119 15.6742Z" fill="url(#paint9_linear_1482_16910)"/>
<path fill-rule="evenodd" clip-rule="evenodd" d="M47.7949 11.7992C42.4474 11.7992 38.1074 16.1417 38.1074 21.4867C38.1074 30.177 46.7203 36.0153 46.7203 36.0153C47.3713 36.4493 48.2186 36.4493 48.8696 36.0153C48.8696 36.0153 57.4824 30.177 57.4824 21.4867C57.4824 16.1417 53.1424 11.7992 47.7949 11.7992ZM47.7949 15.6742C51.0034 15.6742 53.6074 18.2782 53.6074 21.4867C53.6074 26.5965 49.7324 30.4017 47.7949 31.9853C45.8574 30.4017 41.9824 26.5965 41.9824 21.4867C41.9824 18.2782 44.5864 15.6742 47.7949 15.6742Z" fill="url(#paint10_linear_1482_16910)"/>
<defs>
<linearGradient id="paint0_linear_1482_16910" x1="14.2113" y1="18.9033" x2="14.2113" y2="24.07" gradientUnits="userSpaceOnUse">
<stop stop-color="#A4565A"/>
<stop offset="1" stop-color="#D57075"/>
</linearGradient>
<linearGradient id="paint1_linear_1482_16910" x1="47.7952" y1="18.9033" x2="47.7952" y2="24.07" gradientUnits="userSpaceOnUse">
<stop stop-color="#A4565A"/>
<stop offset="1" stop-color="#D57075"/>
</linearGradient>
<linearGradient id="paint2_linear_1482_16910" x1="31.0037" y1="39.8593" x2="31.0037" y2="51.5308" gradientUnits="userSpaceOnUse">
<stop stop-color="#A4565A"/>
<stop offset="1" stop-color="#D57075"/>
</linearGradient>
<linearGradient id="paint3_linear_1482_16910" x1="47.7715" y1="39.8826" x2="47.7715" y2="51.5076" gradientUnits="userSpaceOnUse">
<stop stop-color="#A4565A"/>
<stop offset="1" stop-color="#D57075"/>
</linearGradient>
<linearGradient id="paint4_linear_1482_16910" x1="14.2352" y1="39.8593" x2="14.2352" y2="51.5308" gradientUnits="userSpaceOnUse">
<stop stop-color="#A4565A"/>
<stop offset="1" stop-color="#D57075"/>
</linearGradient>
<linearGradient id="paint5_linear_1482_16910" x1="7.75326" y1="43.7576" x2="7.75326" y2="47.6326" gradientUnits="userSpaceOnUse">
<stop stop-color="#A4565A"/>
<stop offset="1" stop-color="#D57075"/>
</linearGradient>
<linearGradient id="paint6_linear_1482_16910" x1="22.5961" y1="43.7576" x2="22.5961" y2="47.6326" gradientUnits="userSpaceOnUse">
<stop stop-color="#A4565A"/>
<stop offset="1" stop-color="#D57075"/>
</linearGradient>
<linearGradient id="paint7_linear_1482_16910" x1="39.3873" y1="43.7576" x2="39.3873" y2="47.6326" gradientUnits="userSpaceOnUse">
<stop stop-color="#A4565A"/>
<stop offset="1" stop-color="#D57075"/>
</linearGradient>
<linearGradient id="paint8_linear_1482_16910" x1="54.2336" y1="43.7576" x2="54.2336" y2="47.6326" gradientUnits="userSpaceOnUse">
<stop stop-color="#A4565A"/>
<stop offset="1" stop-color="#D57075"/>
</linearGradient>
<linearGradient id="paint9_linear_1482_16910" x1="14.2119" y1="11.7992" x2="14.2119" y2="36.3408" gradientUnits="userSpaceOnUse">
<stop stop-color="#A4565A"/>
<stop offset="1" stop-color="#D57075"/>
</linearGradient>
<linearGradient id="paint10_linear_1482_16910" x1="47.7949" y1="11.7992" x2="47.7949" y2="36.3408" gradientUnits="userSpaceOnUse">
<stop stop-color="#A4565A"/>
<stop offset="1" stop-color="#D57075"/>
</linearGradient>
</defs>
</svg>
