<svg width="17" height="17" viewBox="0 0 17 17" fill="none" xmlns="http://www.w3.org/2000/svg">
<g clip-path="url(#clip0_109_2181)">
<path d="M1.54774 7.35492L1.54775 7.35489L1.54549 7.35433C1.27745 7.28761 1.03916 7.13376 0.868028 6.91695C0.696994 6.70025 0.602725 6.43292 0.6 6.15688L0.6 6.07076C0.601043 5.21353 0.942037 4.39171 1.54819 3.78556C2.15436 3.17939 2.9762 2.83839 3.83345 2.83737L14.5 2.83737C15.0039 2.83737 15.4872 3.03754 15.8435 3.39386C16.1998 3.75018 16.4 4.23345 16.4 4.73737L16.4 6.15691C16.3973 6.43294 16.303 6.70026 16.132 6.91695C15.9608 7.13376 15.7226 7.28761 15.4545 7.35433L15.4545 7.3543L15.4523 7.35491C15.1492 7.43789 14.8818 7.61813 14.6913 7.86791C14.5007 8.11769 14.3974 8.42318 14.3974 8.73737C14.3974 9.05155 14.5007 9.35704 14.6913 9.60682C14.8818 9.8566 15.1492 10.0368 15.4523 10.1198L15.4523 10.1198L15.4545 10.1204C15.7226 10.1871 15.9608 10.341 16.132 10.5578C16.303 10.7745 16.3973 11.0418 16.4 11.3178L16.4 12.7374C16.4 13.2413 16.1998 13.7245 15.8435 14.0809C15.4872 14.4372 15.0039 14.6374 14.5 14.6374L3.83339 14.6374C2.97616 14.6363 2.15434 14.2953 1.54819 13.6892C0.942023 13.083 0.601027 12.2612 0.6 11.4039L0.6 11.3178C0.602725 11.0418 0.696994 10.7745 0.868028 10.5578C1.03916 10.341 1.27745 10.1871 1.54549 10.1204L1.54549 10.1204L1.54774 10.1198C1.85078 10.0368 2.11815 9.8566 2.30874 9.60682C2.49932 9.35704 2.60256 9.05155 2.60256 8.73737C2.60256 8.42318 2.49932 8.11769 2.30874 7.86791C2.11815 7.61813 1.85078 7.43789 1.54774 7.35492ZM15.2666 4.7403L15.2667 4.74031L15.2667 4.73737C15.2667 4.53403 15.1859 4.33903 15.0421 4.19525C14.8983 4.05147 14.7033 3.9707 14.5 3.9707L11.8333 3.9707L11.7333 3.9707L11.7333 4.0707L11.7333 5.40403C11.7333 5.55432 11.6736 5.69846 11.5674 5.80473C11.4611 5.911 11.317 5.9707 11.1667 5.9707C11.0164 5.9707 10.8722 5.911 10.766 5.80473C10.6597 5.69846 10.6 5.55432 10.6 5.40403L10.6 4.0707L10.6 3.9707L10.5 3.9707L3.83333 3.9707C3.27638 3.9707 2.74224 4.19195 2.34841 4.58577C1.95458 4.9796 1.73333 5.51374 1.73333 6.0707L1.73333 6.14203L1.73333 6.21842L1.80703 6.23851C2.35663 6.38836 2.84224 6.71364 3.18997 7.16487C3.53758 7.61596 3.72837 8.16824 3.73333 8.7377C3.73227 9.29925 3.54755 9.84506 3.20734 10.2918C2.86703 10.7388 2.38983 11.062 1.84858 11.2123L1.80292 11.225L1.78382 11.2684L1.74182 11.3637L1.73333 11.383L1.73333 11.404C1.73333 11.961 1.95458 12.4951 2.34841 12.889C2.74224 13.2828 3.27638 13.504 3.83333 13.504L10.5 13.504L10.6 13.504L10.6 13.404L10.6 12.0707C10.6 11.9204 10.6597 11.7763 10.766 11.67C10.8722 11.5637 11.0164 11.504 11.1667 11.504C11.317 11.504 11.4611 11.5637 11.5674 11.67C11.6736 11.7763 11.7333 11.9204 11.7333 12.0707L11.7333 13.404L11.7333 13.504L11.8333 13.504L14.5 13.504C14.7033 13.504 14.8983 13.4233 15.0421 13.2795C15.1859 13.1357 15.2667 12.9407 15.2667 12.7374L15.2667 11.3174L15.2667 11.24L15.1918 11.2206C14.6449 11.0788 14.1601 10.7605 13.8125 10.315C13.4649 9.86961 13.274 9.32196 13.2694 8.757C13.2648 8.19204 13.4468 7.64134 13.787 7.19031C14.1273 6.73928 14.6068 6.41312 15.1513 6.26241L15.2225 6.24272L15.2246 6.16897L15.2666 4.7403Z" fill="black" stroke="white" stroke-width="0.2"/>
<path d="M10.5 8.07071L10.5 9.40404C10.5 9.58085 10.5702 9.75042 10.6953 9.87545C10.8203 10.0005 10.9899 10.0707 11.1667 10.0707C11.3435 10.0707 11.513 10.0005 11.6381 9.87545C11.7631 9.75042 11.8333 9.58085 11.8333 9.40404L11.8333 8.07071C11.8333 7.8939 11.7631 7.72433 11.6381 7.5993C11.513 7.47428 11.3435 7.40404 11.1667 7.40404C10.9899 7.40404 10.8203 7.47428 10.6953 7.5993C10.5702 7.72433 10.5 7.8939 10.5 8.07071Z" fill="black"/>
</g>
<defs>
<clipPath id="clip0_109_2181">
<rect width="16" height="16" fill="white" transform="translate(0.5 16.7374) rotate(-90)"/>
</clipPath>
</defs>
</svg>
