<svg width="16" height="16" viewBox="0 0 16 16" fill="none" xmlns="http://www.w3.org/2000/svg">
<path d="M1.5 3.5H2.5V13.74C2.50132 14.2064 2.68717 14.6533 3.01695 14.9831C3.34673 15.3128 3.79362 15.4987 4.26 15.5H11.76C12.2229 15.4934 12.6647 15.3053 12.9902 14.9761C13.3156 14.6469 13.4987 14.2029 13.5 13.74V3.5H14.5C14.6326 3.5 14.7598 3.44732 14.8536 3.35355C14.9473 3.25979 15 3.13261 15 3C15 2.86739 14.9473 2.74021 14.8536 2.64645C14.7598 2.55268 14.6326 2.5 14.5 2.5H11V1.5C11.0001 1.23906 10.8982 0.988421 10.716 0.801587C10.5338 0.614753 10.2859 0.506524 10.025 0.5H6C5.73478 0.5 5.48043 0.605357 5.29289 0.792893C5.10536 0.98043 5 1.23478 5 1.5V2.5H1.5C1.36739 2.5 1.24021 2.55268 1.14645 2.64645C1.05268 2.74021 1 2.86739 1 3C1 3.13261 1.05268 3.25979 1.14645 3.35355C1.24021 3.44732 1.36739 3.5 1.5 3.5ZM6 1.5H10V2.5H6V1.5ZM5 3.5H12.5V13.74C12.5 13.9416 12.4199 14.1349 12.2774 14.2774C12.1349 14.4199 11.9416 14.5 11.74 14.5H4.24C4.04192 14.4948 3.85371 14.4124 3.71548 14.2705C3.57725 14.1285 3.49993 13.9381 3.5 13.74V3.5H5Z" fill="#DE341B"/>
<path d="M6.33984 12.5C6.47245 12.5 6.59963 12.4473 6.6934 12.3536C6.78717 12.2598 6.83984 12.1326 6.83984 12V6C6.83984 5.86739 6.78717 5.74021 6.6934 5.64645C6.59963 5.55268 6.47245 5.5 6.33984 5.5C6.20724 5.5 6.08006 5.55268 5.98629 5.64645C5.89252 5.74021 5.83984 5.86739 5.83984 6V12C5.83984 12.1326 5.89252 12.2598 5.98629 12.3536C6.08006 12.4473 6.20724 12.5 6.33984 12.5Z" fill="#DE341B"/>
<path d="M9.66016 12.5C9.79276 12.5 9.91994 12.4473 10.0137 12.3536C10.1075 12.2598 10.1602 12.1326 10.1602 12V6C10.1602 5.86739 10.1075 5.74021 10.0137 5.64645C9.91994 5.55268 9.79276 5.5 9.66016 5.5C9.52755 5.5 9.40037 5.55268 9.3066 5.64645C9.21284 5.74021 9.16016 5.86739 9.16016 6V12C9.16016 12.1326 9.21284 12.2598 9.3066 12.3536C9.40037 12.4473 9.52755 12.5 9.66016 12.5Z" fill="#DE341B"/>
</svg>
