<svg width="63" height="63" viewBox="0 0 63 63" fill="none" xmlns="http://www.w3.org/2000/svg">
<path fill-rule="evenodd" clip-rule="evenodd" d="M47.1683 31.665H53.6266C55.1689 31.665 56.6465 31.0528 57.7367 29.9626C58.8269 28.8724 59.4391 27.3948 59.4391 25.8525C59.4391 21.8509 59.4391 15.6458 59.4391 11.6442C59.4391 8.4331 56.8377 5.83168 53.6266 5.83168H9.70996C6.49888 5.83168 3.89746 8.4331 3.89746 11.6442V25.8525C3.89746 27.3948 4.50971 28.8724 5.59988 29.9626C6.69004 31.0528 8.16771 31.665 9.70996 31.665H16.1683C17.2378 31.665 18.1058 30.797 18.1058 29.7275C18.1058 28.658 17.2378 27.79 16.1683 27.79H9.70996C9.19588 27.79 8.70246 27.5859 8.34079 27.2217C7.97654 26.86 7.77246 26.3666 7.77246 25.8525C7.77246 21.8509 7.77246 15.6458 7.77246 11.6442C7.77246 10.5747 8.64046 9.70668 9.70996 9.70668H53.6266C54.6961 9.70668 55.5641 10.5747 55.5641 11.6442V25.8525C55.5641 26.3666 55.3601 26.86 54.9958 27.2217C54.6341 27.5859 54.1407 27.79 53.6266 27.79H47.1683C46.0988 27.79 45.2308 28.658 45.2308 29.7275C45.2308 30.797 46.0988 31.665 47.1683 31.665Z" fill="url(#paint0_linear_1482_16953)"/>
<path fill-rule="evenodd" clip-rule="evenodd" d="M24.4866 38.8467L28.3616 42.7217C29.1185 43.4786 30.343 43.4786 31.1 42.7217L38.85 34.9717C39.6069 34.2174 39.6069 32.9877 38.85 32.2334C38.0956 31.4764 36.866 31.4764 36.1116 32.2334L29.7308 38.6116L27.225 36.1084C26.4706 35.3514 25.241 35.3514 24.4866 36.1084C23.7297 36.8627 23.7297 38.0924 24.4866 38.8467Z" fill="url(#paint1_linear_1482_16953)"/>
<path fill-rule="evenodd" clip-rule="evenodd" d="M49.1055 55.5608V20.6858C49.1055 18.9033 47.6588 17.4567 45.8763 17.4567C40.8336 17.4567 22.5023 17.4567 17.4596 17.4567C15.6771 17.4567 14.2305 18.9033 14.2305 20.6858V55.5608C14.2305 56.2325 14.5792 56.8551 15.1501 57.209C15.7211 57.5629 16.4341 57.5939 17.0334 57.2943L21.3346 55.1449L25.6359 57.2943C26.181 57.5655 26.8216 57.5655 27.3667 57.2943L31.668 55.1449L35.9692 57.2943C36.5143 57.5655 37.155 57.5655 37.7001 57.2943L42.0013 55.1449L46.3026 57.2943C46.9019 57.5939 47.6149 57.5629 48.1858 57.209C48.7567 56.8551 49.1055 56.2325 49.1055 55.5608ZM45.2305 21.3317V52.4247L42.8667 51.2441C42.3216 50.9729 41.681 50.9729 41.1359 51.2441L36.8346 53.3934L32.5334 51.2441C31.9883 50.9729 31.3476 50.9729 30.8026 51.2441L26.5013 53.3934L22.2001 51.2441C21.655 50.9729 21.0143 50.9729 20.4692 51.2441L18.1055 52.4247V21.3317H45.2305Z" fill="url(#paint2_linear_1482_16953)"/>
<defs>
<linearGradient id="paint0_linear_1482_16953" x1="31.6683" y1="5.83168" x2="31.6683" y2="31.665" gradientUnits="userSpaceOnUse">
<stop stop-color="#A4565A"/>
<stop offset="1" stop-color="#D57075"/>
</linearGradient>
<linearGradient id="paint1_linear_1482_16953" x1="31.6683" y1="31.6657" x2="31.6683" y2="43.2894" gradientUnits="userSpaceOnUse">
<stop stop-color="#A4565A"/>
<stop offset="1" stop-color="#D57075"/>
</linearGradient>
<linearGradient id="paint2_linear_1482_16953" x1="31.668" y1="17.4567" x2="31.668" y2="57.4987" gradientUnits="userSpaceOnUse">
<stop stop-color="#A4565A"/>
<stop offset="1" stop-color="#D57075"/>
</linearGradient>
</defs>
</svg>
