<svg width="18" height="18" viewBox="0 0 18 18" fill="none" xmlns="http://www.w3.org/2000/svg">
<g clip-path="url(#clip0_109_2242)">
<path d="M9 0C4.03725 0 0 4.03725 0 9C0 13.9628 4.03725 18 9 18C13.9628 18 18 13.9628 18 9C18 4.03725 13.9628 0 9 0ZM6 15.873V15.75C6 14.0955 7.3455 12.75 9 12.75C10.6545 12.75 12 14.0955 12 15.75V15.873C11.0805 16.2757 10.0665 16.5 9 16.5C7.9335 16.5 6.9195 16.2757 6 15.873ZM13.4437 15.0382C13.1017 12.894 11.2395 11.25 9 11.25C6.7605 11.25 4.899 12.894 4.55625 15.0382C2.70375 13.671 1.5 11.4735 1.5 9C1.5 4.8645 4.8645 1.5 9 1.5C13.1355 1.5 16.5 4.8645 16.5 9C16.5 11.4735 15.2962 13.671 13.4437 15.0382ZM9 3.75C7.3455 3.75 6 5.0955 6 6.75C6 8.4045 7.3455 9.75 9 9.75C10.6545 9.75 12 8.4045 12 6.75C12 5.0955 10.6545 3.75 9 3.75ZM9 8.25C8.17275 8.25 7.5 7.57725 7.5 6.75C7.5 5.92275 8.17275 5.25 9 5.25C9.82725 5.25 10.5 5.92275 10.5 6.75C10.5 7.57725 9.82725 8.25 9 8.25Z" fill="black"/>
</g>
<defs>
<clipPath id="clip0_109_2242">
<rect width="18" height="18" fill="white"/>
</clipPath>
</defs>
</svg>
