<svg width="63" height="63" viewBox="0 0 63 63" fill="none" xmlns="http://www.w3.org/2000/svg">
<path fill-rule="evenodd" clip-rule="evenodd" d="M23.7402 25.9248C23.7402 24.8553 22.8722 23.9873 21.8027 23.9873H8.88607C6.39057 23.9873 4.36523 26.0101 4.36523 28.5082V51.7582C4.36523 54.2537 6.39057 56.279 8.88607 56.279H19.2194C21.7175 56.279 23.7402 54.2537 23.7402 51.7582V25.9248ZM19.8652 27.8623V51.7582C19.8652 52.1147 19.5759 52.404 19.2194 52.404H8.88607C8.52957 52.404 8.24023 52.1147 8.24023 51.7582V28.5082C8.24023 28.1517 8.52957 27.8623 8.88607 27.8623H19.8652Z" fill="url(#paint0_linear_1482_16929)"/>
<path fill-rule="evenodd" clip-rule="evenodd" d="M20.0771 25.1395C19.9376 25.4133 19.8652 25.713 19.8652 26.0204V50.1307C19.8652 50.7791 20.1882 51.3836 20.7281 51.7427C20.7281 51.7427 25.1895 54.7161 27.4628 56.2325C28.6305 57.0127 30.0022 57.426 31.405 57.426H43.8024C49.7467 57.426 54.8358 53.1661 55.8821 47.3148C56.5847 43.3856 57.4217 38.702 58.1476 34.641C58.6695 31.7218 57.8273 28.7252 55.8588 26.5061C53.8903 24.2896 51.0125 23.0935 48.052 23.2666L40.4699 23.7057C40.271 23.7161 40.0798 23.636 39.9481 23.4888C39.8163 23.3389 39.7621 23.14 39.7982 22.9437L40.5551 18.7716C40.9168 16.785 40.7825 14.7416 40.1651 12.8196C39.9377 12.1092 39.6846 11.3212 39.4417 10.5695C38.5479 7.78725 35.962 5.904 33.0428 5.904C30.1237 5.904 27.5352 7.78725 26.6413 10.5695L25.1895 15.0878C25.1792 15.1213 25.1637 15.1523 25.1482 15.1833L20.0771 25.1395ZM23.7402 26.4854L28.6021 16.9426C28.7106 16.7282 28.8036 16.5034 28.8785 16.2735L30.3303 11.7552C30.7075 10.5773 31.8028 9.779 33.0402 9.779C34.2777 9.779 35.3756 10.5773 35.7527 11.7552L36.4761 14.0053C36.8997 15.3202 36.9902 16.7204 36.7447 18.0793C36.5122 19.3477 36.2306 20.8977 35.9852 22.2513C35.7372 23.6153 36.1273 25.0181 37.047 26.0566C37.9641 27.0925 39.31 27.6531 40.6946 27.573L48.2767 27.1338C50.0541 27.0305 51.7797 27.7487 52.9603 29.0791C54.1409 30.4095 54.6472 32.2075 54.3346 33.959L52.0691 46.6328C51.3535 50.637 47.8711 53.551 43.8024 53.551H31.405C30.7669 53.551 30.1443 53.3624 29.6122 53.0085L23.7402 49.0948V26.4854Z" fill="url(#paint1_linear_1482_16929)"/>
<path fill-rule="evenodd" clip-rule="evenodd" d="M12.1152 46.5915V49.1748C12.1152 50.2443 12.9832 51.1123 14.0527 51.1123C15.1222 51.1123 15.9902 50.2443 15.9902 49.1748V46.5915C15.9902 45.522 15.1222 44.654 14.0527 44.654C12.9832 44.654 12.1152 45.522 12.1152 46.5915Z" fill="url(#paint2_linear_1482_16929)"/>
<defs>
<linearGradient id="paint0_linear_1482_16929" x1="14.0527" y1="23.9873" x2="14.0527" y2="56.279" gradientUnits="userSpaceOnUse">
<stop stop-color="#A4565A"/>
<stop offset="1" stop-color="#D57075"/>
</linearGradient>
<linearGradient id="paint1_linear_1482_16929" x1="39.0822" y1="5.904" x2="39.0822" y2="57.426" gradientUnits="userSpaceOnUse">
<stop stop-color="#A4565A"/>
<stop offset="1" stop-color="#D57075"/>
</linearGradient>
<linearGradient id="paint2_linear_1482_16929" x1="14.0527" y1="44.654" x2="14.0527" y2="51.1123" gradientUnits="userSpaceOnUse">
<stop stop-color="#A4565A"/>
<stop offset="1" stop-color="#D57075"/>
</linearGradient>
</defs>
</svg>
