<svg width="14" height="14" viewBox="0 0 14 14" fill="none" xmlns="http://www.w3.org/2000/svg">
<g clip-path="url(#clip0_203_2245)">
<path d="M13.5744 8.50551C12.6697 9.97901 10.6117 12.4512 6.99966 12.4512C3.38766 12.4512 1.32966 9.97901 0.424914 8.50551C0.145222 8.05313 -0.00292969 7.53178 -0.00292969 6.99992C-0.00292969 6.46806 0.145222 5.94672 0.424914 5.49434C1.32966 4.02084 3.38766 1.54867 6.99966 1.54867C10.6117 1.54867 12.6697 4.02084 13.5744 5.49434C13.8541 5.94672 14.0023 6.46806 14.0023 6.99992C14.0023 7.53178 13.8541 8.05313 13.5744 8.50551ZM12.5798 6.10509C11.8028 4.84159 10.0441 2.71534 6.99966 2.71534C3.95525 2.71534 2.1965 4.84159 1.4195 6.10509C1.25333 6.37398 1.16531 6.68383 1.16531 6.99992C1.16531 7.31602 1.25333 7.62586 1.4195 7.89476C2.1965 9.15826 3.95525 11.2845 6.99966 11.2845C10.0441 11.2845 11.8028 9.16059 12.5798 7.89476C12.746 7.62586 12.834 7.31602 12.834 6.99992C12.834 6.68383 12.746 6.37398 12.5798 6.10509Z" fill="black"/>
<path d="M6.99968 9.91699C6.42281 9.91699 5.85891 9.74593 5.37926 9.42545C4.89962 9.10496 4.52578 8.64944 4.30503 8.11649C4.08427 7.58353 4.02651 6.99709 4.13905 6.43131C4.25159 5.86553 4.52938 5.34583 4.93728 4.93793C5.34518 4.53003 5.86488 4.25224 6.43066 4.1397C6.99644 4.02716 7.58288 4.08492 8.11584 4.30568C8.64879 4.52643 9.10431 4.90027 9.4248 5.37991C9.74528 5.85956 9.91634 6.42346 9.91634 7.00033C9.91542 7.77359 9.60783 8.51492 9.06105 9.0617C8.51427 9.60848 7.77294 9.91607 6.99968 9.91699ZM6.99968 5.25033C6.65356 5.25033 6.31521 5.35296 6.02743 5.54525C5.73964 5.73755 5.51534 6.01086 5.38289 6.33063C5.25043 6.6504 5.21578 7.00227 5.2833 7.34173C5.35083 7.6812 5.5175 7.99302 5.76224 8.23776C6.00698 8.4825 6.3188 8.64918 6.65827 8.7167C6.99773 8.78422 7.3496 8.74957 7.66937 8.61711C7.98914 8.48466 8.26245 8.26036 8.45475 7.97257C8.64704 7.68479 8.74968 7.34644 8.74968 7.00033C8.74968 6.5362 8.5653 6.09108 8.23711 5.76289C7.90892 5.4347 7.4638 5.25033 6.99968 5.25033Z" fill="black"/>
</g>
<defs>
<clipPath id="clip0_203_2245">
<rect width="14" height="14" fill="white" transform="matrix(1 0 0 -1 0 14)"/>
</clipPath>
</defs>
</svg>
