<svg width="62" height="63" viewBox="0 0 62 63" fill="none" xmlns="http://www.w3.org/2000/svg">
<path d="M34.4429 28.2206C34.4429 30.115 32.8929 31.665 30.9985 31.665C29.104 31.665 27.554 30.115 27.554 28.2206C27.554 26.3261 29.104 24.7761 30.9985 24.7761C32.8929 24.7761 34.4429 26.3261 34.4429 28.2206ZM56.2979 33.2667C55.7468 36.0395 54.7824 38.6745 53.3874 41.0856V41.1372C53.3874 41.1545 53.3529 41.1717 53.3357 41.2061C50.2012 46.5967 45.1379 50.6956 39.2651 52.6761L40.8668 57.4984H44.7935C45.7407 57.4984 46.5157 58.2733 46.5157 59.2206C46.5157 60.1678 45.7407 60.9428 44.7935 60.9428H39.6268H22.4218H17.2551C16.3079 60.9428 15.5329 60.1678 15.5329 59.2206C15.5329 58.2733 16.3079 57.4984 17.2551 57.4984H21.1818L22.7835 52.6761C16.9107 50.6956 11.8474 46.5967 8.71291 41.2061C8.71291 41.1889 8.67846 41.1717 8.66124 41.1372V41.1028C6.40513 37.2106 5.2168 32.7672 5.2168 28.2206C5.2168 23.6739 6.40513 19.2306 8.66124 15.3384V15.3039C8.66124 15.3039 8.67846 15.3039 8.67846 15.2695C13.2596 7.33001 21.819 2.38724 30.9985 2.38724C40.1779 2.38724 48.7374 7.33001 53.3357 15.2695C53.3357 15.2695 53.3529 15.2867 53.3701 15.3039V15.3556C54.7651 17.7667 55.7296 20.4017 56.2807 23.1745C58.554 23.7256 60.259 25.775 60.259 28.2378C60.259 29.7017 59.6735 31.0622 58.6057 32.0611C57.9512 32.6811 57.1418 33.0772 56.2807 33.3011L56.2979 33.2667ZM56.8318 28.2206C56.8318 27.1356 55.9362 26.4639 55.0924 26.4467C55.0407 26.4467 54.9718 26.4467 54.9201 26.4467C54.7307 26.4467 54.5412 26.4984 54.3346 26.6017L50.7351 28.2034L54.3518 29.805C54.5585 29.8911 54.7479 29.9428 54.9374 29.96C55.454 29.9945 55.9362 29.8222 56.2979 29.495C56.6596 29.1678 56.849 28.7028 56.849 28.2034L56.8318 28.2206ZM51.1829 37.8822C51.9407 36.315 52.509 34.6617 52.8707 32.9395L45.7924 29.7878C45.1724 29.5122 44.7762 28.8922 44.7762 28.2206C44.7762 27.5489 45.1724 26.9289 45.7924 26.6534L52.8707 23.5017C52.509 21.7795 51.9407 20.1261 51.1829 18.5589L39.1273 25.5167C39.4201 26.3778 39.6096 27.2734 39.6096 28.2206C39.6096 29.1678 39.4201 30.0634 39.1273 30.9245L51.1829 37.8822ZM36.1651 28.2206C36.1651 25.3789 33.8401 23.0539 30.9985 23.0539C28.1568 23.0539 25.8318 25.3789 25.8318 28.2206C25.8318 31.0622 28.1568 33.3872 30.9985 33.3872C33.8401 33.3872 36.1651 31.0622 36.1651 28.2206ZM22.8696 30.9245C22.5768 30.0634 22.3874 29.1678 22.3874 28.2206C22.3874 27.2734 22.5768 26.3778 22.8696 25.5167L10.8485 18.5761C9.4018 21.5728 8.60957 24.8622 8.60957 28.2206C8.60957 31.5789 9.4018 34.8684 10.8485 37.865L22.8696 30.9245ZM32.7207 5.90057V19.7817C34.5807 20.1606 36.1996 21.1595 37.4051 22.52L49.4607 15.5622C45.6373 9.98224 39.4546 6.41724 32.7207 5.90057ZM12.5362 15.5795L24.5918 22.5372C25.8146 21.1767 27.4162 20.1778 29.2762 19.7989V5.90057C22.5424 6.41724 16.3596 9.99946 12.5362 15.5622V15.5795ZM25.3668 49.8861C26.6585 50.2133 27.9674 50.3856 29.2762 50.4889V36.6422C27.4162 36.2634 25.7974 35.2645 24.5918 33.9039L12.5535 40.8445C15.6018 45.2706 20.1657 48.5256 25.3668 49.8689V49.8861ZM37.2157 57.4984L35.9068 53.5717C34.2879 53.8817 32.6346 54.0539 30.9812 54.0539C29.3279 54.0539 27.6918 53.8989 26.0557 53.5717L24.7468 57.4984H37.1985H37.2157ZM49.4435 40.8617L37.4051 33.9211C36.1824 35.2817 34.5807 36.2806 32.7207 36.6595V50.5061C34.0296 50.4028 35.3385 50.2306 36.6301 49.9034C41.8312 48.56 46.4123 45.305 49.4435 40.8789V40.8617Z" fill="url(#paint0_linear_1482_16961)"/>
<defs>
<linearGradient id="paint0_linear_1482_16961" x1="32.7379" y1="2.38724" x2="32.7379" y2="60.9428" gradientUnits="userSpaceOnUse">
<stop stop-color="#A4565A"/>
<stop offset="1" stop-color="#D57075"/>
</linearGradient>
</defs>
</svg>
